<svg width="79" height="79" viewBox="0 0 79 79" fill="none" xmlns="http://www.w3.org/2000/svg">
<g id="Component 32" clip-path="url(#clip0_320_274)">
<g id="Group">
<g id="Group_2">
<path id="Vector" d="M50.1728 10.6727C34.2775 10.6727 21.3455 23.6045 21.3455 39.5001C21.3455 55.3957 34.2772 68.3275 50.1728 68.3275C66.0685 68.3275 79.0002 55.3957 79.0002 39.5001C79.0002 23.6045 66.0682 10.6727 50.1728 10.6727ZM50.1728 62.9155C37.2615 62.9155 26.7571 52.4113 26.7571 39.4998C26.7571 26.5883 37.2615 16.0842 50.1728 16.0842C63.0842 16.0842 73.5886 26.5884 73.5886 39.5C73.5886 52.4115 63.0842 62.9155 50.1728 62.9155Z" fill="#CBAA5D"/>
</g>
</g>
<g id="Group_3">
<g id="Group_4">
<path id="Vector_2" d="M50.1727 19.4863C39.137 19.4863 30.1589 28.4644 30.1589 39.5C30.1589 50.5356 39.137 59.5136 50.1727 59.5136C61.2083 59.5136 70.1864 50.5356 70.1864 39.5C70.1864 28.4644 61.208 19.4863 50.1727 19.4863ZM50.1727 54.1018C42.1209 54.1018 35.5706 47.5515 35.5706 39.4998C35.5706 31.4482 42.1209 24.8978 50.1727 24.8978C58.2242 24.8978 64.7748 31.4482 64.7748 39.4998C64.7748 47.5515 58.2241 54.1018 50.1727 54.1018Z" fill="#CBAA5D"/>
</g>
</g>
<g id="Group_5">
<g id="Group_6">
<path id="Vector_3" d="M17.8231 12.4482C16.3287 12.4482 15.1174 13.6597 15.1174 15.1539V26.9048H13.0381V15.0795C13.0381 13.5852 11.8265 12.3738 10.3323 12.3738C8.83795 12.3738 7.62657 13.5853 7.62657 15.0795V26.905H5.41164V15.0795C5.41164 13.5852 4.20011 12.3738 2.7059 12.3738C1.21154 12.3738 0 13.5852 0 15.0795V30.946C0 31.0219 0.00524608 31.0966 0.0114179 31.1711C-0.0171269 31.6039 0.022373 32.0415 0.136244 32.4698L1.30936 35.9458C1.78259 37.4768 3.02066 39.985 6.0492 39.985H7.56578V65.6212C7.56578 67.1156 8.77731 68.327 10.2715 68.327C11.7659 68.327 12.9773 67.1154 12.9773 65.6212V39.9848H14.4925C17.5258 39.9848 18.7038 37.2158 19.1471 36.1734L19.1905 36.0714L20.371 32.5126L20.3746 32.4976C20.4727 32.2174 20.5289 31.9174 20.5289 31.6036V15.154C20.529 13.6597 19.3175 12.4482 17.8231 12.4482ZM14.1246 34.1552C14.0755 34.2694 14.005 34.4296 13.9348 34.5734H6.55575C6.5306 34.5064 6.50314 34.426 6.47398 34.33L5.79245 32.3166H14.7346L14.1246 34.1552Z" fill="#CBAA5D"/>
</g>
</g>
</g>
<defs>
<clipPath id="clip0_320_274">
<rect width="79" height="79" fill="white"/>
</clipPath>
</defs>
</svg>
