<svg width="80" height="80" viewBox="0 0 80 80" fill="none" xmlns="http://www.w3.org/2000/svg">
<g id="Component 32" clip-path="url(#clip0_197_2823)">
<path id="Vector" d="M75 70H5V75H75V70Z" fill="#CBAA5D"/>
<path id="Vector_2" d="M61.25 27.5H20C18.6743 27.5013 17.4033 28.0285 16.4659 28.9659C15.5285 29.9033 15.0013 31.1743 15 32.5V52.5C15.0039 55.814 16.3221 58.9912 18.6655 61.3345C21.0088 63.6779 24.186 64.9961 27.5 65H47.5C50.814 64.9961 53.9912 63.6779 56.3345 61.3345C58.6779 58.9912 59.9961 55.814 60 52.5V50H61.25C64.2337 50 67.0952 48.8147 69.205 46.705C71.3147 44.5952 72.5 41.7337 72.5 38.75C72.5 35.7663 71.3147 32.9048 69.205 30.795C67.0952 28.6853 64.2337 27.5 61.25 27.5ZM55 52.5C54.9978 54.4885 54.2069 56.3948 52.8009 57.8009C51.3948 59.2069 49.4885 59.9978 47.5 60H27.5C25.5115 59.9978 23.6052 59.2069 22.1991 57.8009C20.7931 56.3948 20.0022 54.4885 20 52.5V32.5H55V52.5ZM61.25 45H60V32.5H61.25C62.9076 32.5 64.4973 33.1585 65.6694 34.3306C66.8415 35.5027 67.5 37.0924 67.5 38.75C67.5 40.4076 66.8415 41.9973 65.6694 43.1694C64.4973 44.3415 62.9076 45 61.25 45Z" fill="#CBAA5D"/>
<path id="Vector_3" d="M47.5001 22.5H42.5001V22.135C42.5033 21.2059 42.2461 20.2944 41.7576 19.504C41.2691 18.7137 40.5689 18.076 39.7363 17.6635L33.0273 14.309C31.3625 13.4833 29.9623 12.2078 28.9854 10.627C28.0085 9.04616 27.4939 7.2233 27.5001 5.365V2.5H32.5001V5.365C32.497 6.29409 32.7543 7.20545 33.2428 7.99576C33.7313 8.78608 34.4314 9.42376 35.2638 9.8365L41.9728 13.191C43.6375 14.0168 45.0377 15.2923 46.0146 16.8731C46.9915 18.4539 47.5061 20.2767 47.5001 22.135V22.5Z" fill="#CBAA5D"/>
</g>
<defs>
<clipPath id="clip0_197_2823">
<rect width="80" height="80" fill="white"/>
</clipPath>
</defs>
</svg>
