<svg width="70" height="70" viewBox="0 0 70 70" fill="none" xmlns="http://www.w3.org/2000/svg">
<g id="Component 32" clip-path="url(#clip0_197_2827)">
<g id="Page-1">
<g id="Dribbble-Light-Preview">
<g id="icons">
<path id="call-[#189]" fill-rule="evenodd" clip-rule="evenodd" d="M69.984 7.03418C69.984 3.17018 66.841 0.0273438 62.977 0.0273438C60.2505 0.00984375 63.1485 0.021 45.4455 0C43.5135 0 41.9105 1.53724 41.914 3.46924C41.914 5.40124 43.4155 6.90601 45.3475 6.90601L53.7545 6.98975C55.3155 6.98975 56.0505 8.83012 54.948 9.93262L42.2395 22.6423C40.8745 24.0108 40.8745 26.2248 42.2395 27.5898C43.608 28.9583 45.8235 28.9583 47.192 27.5898L59.904 14.8784C61.0065 13.7759 62.935 14.6027 62.935 16.1602L62.9525 24.5103C62.9525 26.4423 64.5941 28.0837 66.5295 28.0837C68.4615 28.0837 70.0015 26.4884 70.0015 24.5564L69.984 7.03418ZM49.4075 54.5234C46.975 53.2144 44.5145 51.7229 41.97 50.6834C37.056 48.6779 37.3885 54.6066 33.8745 56.5281C31.5925 57.7776 28.376 55.5133 26.3845 54.2603C22.9056 52.0693 19.822 49.1858 17.2565 45.8503C15.9475 44.1458 13.0461 40.9401 13.4031 38.5496C13.9701 34.7556 18.4605 34.5653 17.176 29.9243C16.49 27.4393 15.2615 24.9936 14.341 22.5996C13.1055 19.3901 12.6015 17.3353 9.00354 17.5103C6.41004 17.6363 4.68453 18.7466 3.08853 20.8291C-1.22697 26.4536 -0.575977 34.0368 2.32552 40.2073C6.43102 48.9398 13.473 57.1724 20.998 62.4924C26.115 66.1114 32.856 69.3974 39.051 69.9539C43.587 70.3634 49.9325 67.9108 51.5565 62.9863C51.441 63.3293 51.3325 63.6611 51.28 63.8186C51.322 63.6961 51.4025 63.4483 51.5565 62.9863C51.7175 62.4893 51.8015 62.2404 51.8365 62.1284C51.791 62.2754 51.6755 62.6191 51.56 62.9761C52.988 58.6326 53.1595 56.5429 49.4075 54.5234ZM51.28 63.8186C51.245 63.9271 51.238 63.9446 51.28 63.8186ZM51.8365 62.1284C51.868 62.0374 51.8645 62.0444 51.8365 62.1284Z" fill="#CBAA5D"/>
</g>
</g>
</g>
</g>
<defs>
<clipPath id="clip0_197_2827">
<rect width="70" height="70" fill="white"/>
</clipPath>
</defs>
</svg>
