<svg width="111" height="98" viewBox="0 0 111 98" fill="none" xmlns="http://www.w3.org/2000/svg">
<g id="clock-svgrepo-com 1">
<path id="Vector" d="M55.5 94.125C47.2675 94.125 39.2196 91.6839 32.3744 87.1098C25.5292 82.5361 20.194 76.0352 17.0435 68.4294C13.893 60.8231 13.0687 52.4537 14.6748 44.3794C16.2809 36.3049 20.2453 28.8881 26.0667 23.0667C31.8881 17.2453 39.3049 13.2809 47.3794 11.6748C55.4537 10.0687 63.8231 10.893 71.4294 14.0435C79.0352 17.194 85.5361 22.5292 90.1098 29.3744C94.6839 36.2196 97.125 44.2675 97.125 52.5C97.125 63.5399 92.7396 74.127 84.9335 81.9335C77.127 89.7396 66.5399 94.125 55.5 94.125ZM55.5 17.8125C48.6393 17.8125 41.933 19.8469 36.2287 23.6584C30.5243 27.4699 26.0783 32.8874 23.453 39.2257C20.8275 45.5639 20.1406 52.5384 21.479 59.2673C22.8174 65.9957 26.1211 72.1766 30.9722 77.0278C35.8234 81.8789 42.0041 85.1826 48.7327 86.521C55.4616 87.8595 62.4361 87.1727 68.7742 84.5471C75.1128 81.9215 80.53 77.4755 84.3415 71.7714C88.153 66.067 90.1875 59.3607 90.1875 52.5C90.1875 43.3004 86.5328 34.4774 80.0278 27.9722C73.5227 21.4671 64.6996 17.8125 55.5 17.8125Z" fill="#CBAA5D"/>
<path id="Vector_2" d="M69.375 55.9688H55.5C54.5838 55.9567 53.7083 55.5877 53.0603 54.9397C52.4123 54.2917 52.0433 53.4162 52.0312 52.5V29.375C52.0312 28.455 52.3966 27.5727 53.0474 26.9222C53.6976 26.2717 54.5801 25.9062 55.5 25.9062C56.4199 25.9062 57.3024 26.2717 57.9526 26.9222C58.6034 27.5727 58.9688 28.455 58.9688 29.375V49.0312H69.375C70.2949 49.0312 71.1774 49.3966 71.8276 50.0474C72.4784 50.6976 72.8438 51.5801 72.8438 52.5C72.8438 53.4199 72.4784 54.3024 71.8276 54.9526C71.1774 55.6034 70.2949 55.9688 69.375 55.9688Z" fill="#CBAA5D"/>
</g>
</svg>
