<svg width="80" height="80" viewBox="0 0 80 80" fill="none" xmlns="http://www.w3.org/2000/svg">
<g id="Component 36" clip-path="url(#clip0_197_2819)">
<path id="Vector" d="M0 25C0.00122078 30.786 2.00857 36.3926 5.68004 40.8646C9.35152 45.3365 14.46 48.3971 20.135 49.525C20.4582 45.9426 21.3775 42.4394 22.855 39.16C18.475 37.68 15.66 34.32 15 29.55H12.5V27.42H14.83V25.25C14.83 25.02 14.83 24.785 14.85 24.575H12.5V22.44H15.055C16.18 16.2 21.065 12.5 28.405 12.5C29.985 12.5 31.355 12.655 32.5 12.925V16.59C31.1627 16.2924 29.7948 16.1548 28.425 16.18C23.83 16.18 20.735 18.51 19.755 22.44H29.34V24.575H19.44C19.425 24.805 19.425 25.06 19.425 25.31V27.42H29.34V29.555H19.65C20.24 32.565 21.99 34.705 24.675 35.7C27.3077 31.3398 30.9283 27.6594 35.2449 24.9557C39.5614 22.252 44.453 20.6007 49.525 20.135C48.2987 14.0625 44.8624 8.6613 39.8816 4.97753C34.9009 1.29377 28.7302 -0.410343 22.5648 0.195298C16.3995 0.80094 10.6783 3.67323 6.50956 8.25578C2.34081 12.8383 0.0211849 18.805 0 25ZM80 52.5C80 59.7934 77.1027 66.7882 71.9454 71.9454C66.7882 77.1027 59.7935 80 52.5 80C45.2065 80 38.2118 77.1027 33.0546 71.9454C27.8973 66.7882 25 59.7934 25 52.5C25 45.2065 27.8973 38.2118 33.0546 33.0545C38.2118 27.8973 45.2065 25 52.5 25C59.7935 25 66.7882 27.8973 71.9454 33.0545C77.1027 38.2118 80 45.2065 80 52.5ZM41.25 59.11C41.595 63.285 44.98 66.535 51.07 66.92V70H53.77V66.9C60.065 66.47 63.75 63.2 63.75 58.45C63.75 54.125 60.935 51.9 55.9 50.75L53.77 50.25V41.87C56.47 42.17 58.19 43.605 58.6 45.595H63.34C62.99 41.575 59.445 38.43 53.77 38.085V35H51.07V38.145C45.69 38.66 42.03 41.805 42.03 46.255C42.03 50.19 44.75 52.695 49.28 53.72L51.07 54.145V63.045C48.3 62.645 46.47 61.165 46.055 59.11H41.25ZM51.05 49.635C48.39 49.035 46.95 47.815 46.95 45.975C46.95 43.925 48.505 42.38 51.07 41.93V49.63H51.045L51.05 49.635ZM54.16 54.855C57.385 55.58 58.875 56.755 58.875 58.835C58.875 61.205 57.025 62.835 53.775 63.135V54.765L54.16 54.855Z" fill="#CBAA5D"/>
</g>
<defs>
<clipPath id="clip0_197_2819">
<rect width="80" height="80" fill="white"/>
</clipPath>
</defs>
</svg>
