<svg width="100" height="100" viewBox="0 0 100 100" fill="none" xmlns="http://www.w3.org/2000/svg">
<g id="drink (1) 1">
<path id="Vector" d="M88.2656 30.6182C88.425 30.3653 88.5088 30.0721 88.5072 29.7731C88.5055 29.4741 88.4185 29.1819 88.2562 28.9307C88.0914 28.6817 87.8598 28.4842 87.5878 28.361C87.3158 28.2377 87.0146 28.1936 86.7187 28.2338L49.6062 33.6245C49.5572 33.6437 49.5092 33.6656 49.4625 33.6901L13.2937 28.0995C12.9986 28.057 12.6974 28.0987 12.4249 28.2197C12.1523 28.3408 11.9195 28.5363 11.7531 28.7838C11.5885 29.0329 11.4986 29.3239 11.4942 29.6224C11.4898 29.9209 11.5709 30.2144 11.7281 30.4682L26.6156 54.4588L23.125 77.0526L15.4031 75.8557C14.9943 75.7971 14.5789 75.901 14.2459 76.1453C13.9129 76.3895 13.6888 76.7545 13.6219 77.162C13.559 77.5709 13.6609 77.9881 13.9052 78.322C14.1494 78.6559 14.5162 78.8793 14.925 78.9432L33.4562 81.812C33.5348 81.8241 33.6142 81.8304 33.6937 81.8307C34.0903 81.8344 34.4734 81.6871 34.7654 81.4188C35.0574 81.1505 35.2364 80.7812 35.2663 80.3857C35.2961 79.9903 35.1744 79.5983 34.9259 79.2893C34.6774 78.9802 34.3207 78.7772 33.9281 78.7213L26.2094 77.5276L29.7031 54.9338L50.0781 37.4651L70.0687 54.9213L73.3531 77.5432L65.6219 78.6651C65.2304 78.7209 64.8747 78.923 64.6264 79.2307C64.378 79.5384 64.2556 79.9288 64.2837 80.3232C64.3119 80.7176 64.4885 81.0866 64.778 81.356C65.0675 81.6253 65.4483 81.7748 65.8437 81.7745C65.9211 81.7739 65.9983 81.7687 66.075 81.7588L84.6313 79.0651C85.0415 79.004 85.4108 78.7831 85.6585 78.4504C85.9062 78.1178 86.0122 77.7006 85.9531 77.2901C85.8853 76.884 85.663 76.5198 85.3327 76.274C85.0024 76.0282 84.5897 75.9197 84.1812 75.9713L76.45 77.0932L73.1625 54.4745L88.2656 30.6182ZM62.4719 44.1338C63.4558 43.7404 64.349 43.1502 65.0969 42.3995C66.5756 43.2268 68.286 43.5432 69.9629 43.2997C71.6398 43.0562 73.1895 42.2663 74.3719 41.0526C75.3022 41.5595 76.3262 41.8711 77.3812 41.9682L71.1875 51.7495L62.4719 44.1338ZM28.6125 51.7526L22.5094 41.9151C23.5642 41.8282 24.5903 41.5273 25.525 41.0307C26.6965 42.2559 28.2396 43.0603 29.9149 43.3191C31.5902 43.5779 33.304 43.2766 34.7906 42.462C35.5317 43.2198 36.4196 43.8185 37.4 44.2213L28.6125 51.7526ZM40.3187 41.7151C40.097 41.7122 39.8756 41.6945 39.6562 41.662C38.9969 41.5591 38.3677 41.3144 37.812 40.9448C37.2563 40.5753 36.7874 40.0896 36.4375 39.5213C36.3182 39.3332 36.16 39.1727 35.9736 39.0507C35.7871 38.9286 35.5768 38.8479 35.3566 38.8139C35.1364 38.7798 34.9114 38.7933 34.6969 38.8533C34.4823 38.9134 34.2831 39.0186 34.1125 39.162C33.6072 39.5983 33.0132 39.9196 32.3716 40.1038C31.7299 40.2879 31.0559 40.3305 30.3961 40.2286C29.7364 40.1267 29.1067 39.8826 28.5505 39.5134C27.9943 39.1442 27.525 38.6585 27.175 38.0901C27.0554 37.9013 26.8968 37.7404 26.7098 37.618C26.5229 37.4957 26.3119 37.4147 26.091 37.3807C25.8702 37.3467 25.6446 37.3603 25.4295 37.4206C25.2143 37.481 25.0146 37.5867 24.8437 37.7307C24.3343 38.1619 23.739 38.4799 23.0974 38.6637C22.4557 38.8474 21.7823 38.8926 21.1219 38.7963C20.8965 38.7512 20.675 38.6885 20.4594 38.6088L16.175 31.7057L46.5187 36.3963L40.3187 41.7151ZM83.8062 31.8182L79.4375 38.7182C79.2256 38.7808 79.0094 38.8278 78.7906 38.8588C78.1288 38.9568 77.4536 38.9088 76.8122 38.7183C76.1709 38.5277 75.5791 38.1992 75.0781 37.7557C74.9071 37.6139 74.7086 37.5088 74.4952 37.4469C74.2818 37.3851 74.0579 37.3679 73.8375 37.3963C73.6171 37.4286 73.4062 37.5075 73.2187 37.6277C73.0312 37.7478 72.8714 37.9065 72.75 38.0932C72.3925 38.6564 71.9181 39.1363 71.359 39.5002C70.7999 39.8641 70.1691 40.1037 69.5094 40.2026C68.849 40.2996 68.1755 40.2517 67.5354 40.0623C66.8954 39.8729 66.3043 39.5465 65.8031 39.1057C65.6325 38.9619 65.4338 38.8554 65.2196 38.793C65.0054 38.7305 64.7805 38.7136 64.5594 38.7432C64.3393 38.7763 64.1288 38.8558 63.9419 38.9765C63.7549 39.0972 63.5958 39.2563 63.475 39.4432C63.0789 40.1267 62.5014 40.6872 61.8065 41.0628C61.1116 41.4384 60.3263 41.6144 59.5375 41.5713L53.4187 36.2276L83.8062 31.8182ZM49.825 24.4182C50.0302 24.4182 50.2334 24.3778 50.4229 24.2993C50.6125 24.2208 50.7848 24.1057 50.9299 23.9606C51.0749 23.8155 51.19 23.6432 51.2686 23.4537C51.3471 23.2641 51.3875 23.0609 51.3875 22.8557V19.7307C51.3875 19.3163 51.2229 18.9189 50.9299 18.6259C50.6368 18.3328 50.2394 18.1682 49.825 18.1682C49.4106 18.1682 49.0132 18.3328 48.7201 18.6259C48.4271 18.9189 48.2625 19.3163 48.2625 19.7307V22.8557C48.2625 23.2701 48.4271 23.6675 48.7201 23.9606C49.0132 24.2536 49.4106 24.4182 49.825 24.4182ZM57.6125 27.5432C57.8173 27.5435 58.0202 27.5034 58.2095 27.4251C58.3988 27.3468 58.5708 27.2319 58.7156 27.087L60.925 24.8776C61.2096 24.5829 61.3671 24.1882 61.3636 23.7785C61.36 23.3688 61.1957 22.9769 60.906 22.6872C60.6163 22.3975 60.2244 22.2332 59.8147 22.2297C59.405 22.2261 59.0103 22.3836 58.7156 22.6682L56.5062 24.8776C56.2882 25.0963 56.1399 25.3747 56.08 25.6776C56.0201 25.9805 56.0513 26.2944 56.1697 26.5796C56.288 26.8648 56.4883 27.1086 56.745 27.2801C57.0018 27.4516 57.3037 27.5431 57.6125 27.5432ZM39.9687 27.087C40.2656 27.3598 40.6564 27.5073 41.0595 27.4987C41.4627 27.4901 41.8468 27.3259 42.1317 27.0406C42.4166 26.7553 42.5802 26.3709 42.5883 25.9678C42.5963 25.5647 42.4483 25.1741 42.175 24.8776L39.9656 22.6682C39.6709 22.3836 39.2762 22.2261 38.8666 22.2297C38.4569 22.2332 38.065 22.3975 37.7753 22.6872C37.4856 22.9769 37.3213 23.3688 37.3177 23.7785C37.3141 24.1882 37.4716 24.5829 37.7562 24.8776L39.9687 27.087Z" fill="#CBAA5D"/>
</g>
</svg>
