<svg width="80" height="80" viewBox="0 0 80 80" fill="none" xmlns="http://www.w3.org/2000/svg">
<g id="Component 32">
<path id="Vector" d="M20 24C20 22.6746 18.9254 21.6 17.6 21.6C16.2745 21.6 15.2 22.6746 15.2 24H20ZM64.8 24C64.8 22.6746 63.7254 21.6 62.4 21.6C61.0745 21.6 60 22.6746 60 24H64.8ZM15.2 24C15.2 25.3255 16.2745 26.4 17.6 26.4C18.9254 26.4 20 25.3255 20 24H15.2ZM60 24C60 25.3255 61.0745 26.4 62.4 26.4C63.7254 26.4 64.8 25.3255 64.8 24H60ZM17.6 21.6C16.2745 21.6 15.2 22.6746 15.2 24C15.2 25.3255 16.2745 26.4 17.6 26.4V21.6ZM62.4 26.4C63.7254 26.4 64.8 25.3255 64.8 24C64.8 22.6746 63.7254 21.6 62.4 21.6V26.4ZM46.4 15.2C45.0745 15.2 44 16.2746 44 17.6C44 18.9255 45.0745 20 46.4 20V15.2ZM56 20C57.3254 20 58.4 18.9255 58.4 17.6C58.4 16.2746 57.3254 15.2 56 15.2V20ZM55.2 46.4C55.2 45.0746 54.1254 44 52.8 44C51.4745 44 50.4 45.0746 50.4 46.4H55.2ZM29.6 46.4C29.6 45.0746 28.5254 44 27.2 44C25.8745 44 24.8 45.0746 24.8 46.4H29.6ZM50.4 46.4C50.4 47.7255 51.4745 48.8 52.8 48.8C54.1254 48.8 55.2 47.7255 55.2 46.4H50.4ZM24.8 46.4C24.8 47.7255 25.8745 48.8 27.2 48.8C28.5254 48.8 29.6 47.7255 29.6 46.4H24.8ZM53.8723 48.5472C55.0582 47.9549 55.5392 46.5136 54.9472 45.3277C54.3548 44.1418 52.9136 43.6608 51.7276 44.2528L53.8723 48.5472ZM26.1276 44.2528C24.9418 44.8452 24.4606 46.2864 25.0528 47.4724C25.6451 48.6583 27.0865 49.1392 28.2723 48.5472L26.1276 44.2528ZM15.2 24V62.4H20V24H15.2ZM15.2 62.4C15.2 67.2602 19.1399 71.2 24 71.2V66.4C21.7908 66.4 20 64.6093 20 62.4H15.2ZM24 71.2H56V66.4H24V71.2ZM56 71.2C60.8601 71.2 64.8 67.2602 64.8 62.4H60C60 64.6093 58.2092 66.4 56 66.4V71.2ZM64.8 62.4V24H60V62.4H64.8ZM20 24V17.6H15.2V24H20ZM20 17.6C20 15.3909 21.7908 13.6 24 13.6V8.80005C19.1399 8.80005 15.2 12.74 15.2 17.6H20ZM24 13.6H56V8.80005H24V13.6ZM56 13.6C58.2092 13.6 60 15.3909 60 17.6H64.8C64.8 12.74 60.8601 8.80005 56 8.80005V13.6ZM60 17.6V24H64.8V17.6H60ZM17.6 26.4H62.4V21.6H17.6V26.4ZM46.4 20H56V15.2H46.4V20ZM50.4 46.4C50.4 52.1437 45.7436 56.8 40 56.8V61.6C48.3948 61.6 55.2 54.7949 55.2 46.4H50.4ZM40 56.8C34.2563 56.8 29.6 52.1437 29.6 46.4H24.8C24.8 54.7949 31.6052 61.6 40 61.6V56.8ZM55.2 46.4C55.2 38.0052 48.3948 31.2 40 31.2V36C45.7436 36 50.4 40.6564 50.4 46.4H55.2ZM40 31.2C31.6052 31.2 24.8 38.0052 24.8 46.4H29.6C29.6 40.6564 34.2563 36 40 36V31.2ZM51.7276 44.2528C50.5027 44.8647 48.4364 45.6125 46.3673 45.826C44.2476 46.0445 42.655 45.6608 41.6969 44.7031L38.303 48.097C40.7593 50.5536 44.1443 50.8804 46.8598 50.6007C49.6259 50.3156 52.2524 49.3562 53.8723 48.5472L51.7276 44.2528ZM41.6969 44.7031C39.2406 42.2464 35.8556 41.9197 33.1401 42.1994C30.374 42.4845 27.7474 43.4439 26.1276 44.2528L28.2723 48.5472C29.4973 47.9354 31.5635 47.1876 33.6326 46.9741C35.7523 46.7556 37.3449 47.1392 38.303 48.097L41.6969 44.7031Z" fill="#CBAA5D"/>
</g>
</svg>
