<svg width="70" height="70" viewBox="0 0 70 70" fill="none" xmlns="http://www.w3.org/2000/svg">
<g id="gym-running-foot-run-svgrepo-com 1">
<g id="Group">
<path id="Vector" d="M59.0625 70H39.1562C35.875 70 33.0313 68.6875 30.625 66.5L0.65625 36.5313C-0.21875 35.6563 -0.21875 34.3438 0.65625 33.4688C1.53125 32.5938 2.84375 32.5938 3.71875 33.4688L33.6875 63.4375C35.2187 64.75 36.9687 65.625 39.1562 65.625H59.0625C60.375 65.625 61.25 66.5 61.25 67.8125C61.25 69.125 60.375 70 59.0625 70Z" fill="#CBAA5D"/>
</g>
<path id="Vector_2" d="M59.2812 50.3126H37.1875C35.875 50.3126 35 49.4376 35 48.1251C35 46.8126 35.875 45.9376 37.1875 45.9376H49.875C49 45.2813 48.3437 44.6251 47.6875 43.7501H32.8125C31.5 43.7501 30.625 42.8751 30.625 41.5626C30.625 40.2501 31.5 39.3751 32.8125 39.3751H45.0625C44.1875 36.9688 43.75 34.1251 43.75 30.6251C43.75 29.9688 43.5313 29.5313 43.0938 29.0938C42.6563 28.6563 42.2187 28.4376 41.5625 28.4376H39.375C32.1562 28.4376 24.0625 20.3438 24.0625 13.1251C24.0625 12.2501 23.4062 11.3751 22.75 11.1563C21.875 10.7188 20.7812 10.9376 20.125 11.5938L4.8125 29.0938C4.15625 29.9688 4.15625 31.2813 4.8125 32.1563L32.8125 59.9376C35 62.1251 38.0625 63.4376 41.3437 63.4376H59.0625C60.1562 63.4376 61.0312 62.7813 61.25 61.6876L62.125 57.7501C62.5625 55.7813 62.3437 53.8126 61.25 52.2813C60.8125 51.6251 60.1563 50.9688 59.2812 50.3126ZM22.9687 39.3751C19.9062 39.3751 17.5 36.9688 17.5 33.9063C17.5 30.8438 19.9062 28.4376 22.9687 28.4376C26.0312 28.4376 28.4375 30.8438 28.4375 33.9063C28.4375 36.9688 26.0312 39.3751 22.9687 39.3751Z" fill="#CBAA5D"/>
<g id="Group_2">
<path id="Vector_3" d="M41.5625 34.3437C40.6875 34.3437 39.8125 33.6875 39.375 32.8125C37.8438 27.125 39.375 20.7812 43.75 16.625L59.7188 0.65625C60.5938 -0.21875 61.9063 -0.21875 62.7813 0.65625C63.6563 1.53125 63.6563 2.84375 62.7813 3.71875L46.8125 19.6875C43.75 22.75 42.4375 27.3438 43.5313 31.7188C43.75 32.8125 43.0938 34.125 42 34.3437C42 34.3437 41.7813 34.3437 41.5625 34.3437Z" fill="#CBAA5D"/>
</g>
<g id="Group_3">
<path id="Vector_4" d="M21.8751 17.5001C21.0001 17.5001 20.1251 16.8438 19.9063 15.9688C19.4688 14.8751 20.1251 13.5626 21.2188 13.3438C24.9376 12.0313 28.2188 9.62508 30.1876 6.12508L33.2501 1.09383C33.6876 7.51894e-05 35.0001 -0.218675 36.0938 0.218825C37.1876 0.875075 37.4063 2.18758 36.9688 3.28133L33.9063 8.31258C31.2813 12.6876 27.3438 15.7501 22.5313 17.2813C22.3126 17.5001 22.0938 17.5001 21.8751 17.5001Z" fill="#CBAA5D"/>
</g>
</g>
</svg>
