<svg width="62" height="71" viewBox="0 0 62 71" fill="none" xmlns="http://www.w3.org/2000/svg">
<g id="Group">
<path id="Vector" d="M58.7285 34.2981H55.4891L35.8452 13.9077H39.9219C42.1505 13.9077 44.2167 12.9804 45.3137 11.4878C46.1583 10.3385 46.3333 8.98356 45.845 7.75022C46.3333 6.51701 46.1583 5.16177 45.3137 4.01274C44.217 2.52036 42.151 1.59292 39.9219 1.59292H33.4443C33.3493 1.59292 33.255 1.595 33.1611 1.59847C32.8033 0.67436 31.6917 0 30.3741 0C28.7675 0 27.4651 1.00204 27.4651 2.23802V11.2485L5.25894 34.2981H2.90904C1.30248 34.2981 0 35.3001 0 36.5361C0 37.7721 1.30248 38.7741 2.90904 38.7741H6.72364H8.50721V66.524H8.37779C6.77123 66.524 5.46875 67.526 5.46875 68.762C5.46875 69.998 6.77123 71 8.37779 71H52.3702C53.9768 71 55.2793 69.998 55.2793 68.762C55.2793 67.526 53.9768 66.524 52.3702 66.524H52.2408V38.7741H54.0242H58.7283C60.3349 38.7741 61.6374 37.7721 61.6374 36.5361C61.6374 35.3001 60.3351 34.2981 58.7285 34.2981ZM33.4443 6.0691H39.9219C40.0574 6.0691 40.1825 6.12526 40.2492 6.21609C40.3159 6.30678 40.3139 6.41828 40.2442 6.50758L39.2724 7.75063L40.2442 8.99355C40.3139 9.08285 40.3159 9.1942 40.2492 9.28503C40.1825 9.37586 40.0574 9.43203 39.9219 9.43203H33.4443V6.0691ZM36.3809 66.5007H24.3671V57.5472C24.3671 54.999 27.0618 52.926 30.3739 52.926C33.686 52.926 36.3807 54.9991 36.3807 57.5472V66.5007H36.3809ZM46.4229 66.5007H42.1988V57.5472C42.1988 52.531 36.8941 48.4499 30.3739 48.4499C23.8538 48.4499 18.549 52.531 18.549 57.5472V66.5007H14.3249V38.7741H46.4229V66.5007ZM12.5006 34.2983L30.3741 15.7459L48.2476 34.2983H12.5006Z" fill="#CBAA5D"/>
</g>
</svg>
