<svg width="80" height="80" viewBox="0 0 80 80" fill="none" xmlns="http://www.w3.org/2000/svg">
<g id="internet-svgrepo-com (1) 1" clip-path="url(#clip0_209_3046)">
<g id="Group">
<path id="Vector" d="M39.9991 0.000976562C17.9073 0.00207031 0.001875 17.9082 0 40C0.001875 62.0918 17.9073 79.9978 39.9991 79.9991C62.0927 79.9978 79.9987 62.0918 80 40C79.9987 17.9082 62.0927 0.00207031 39.9991 0.000976562ZM15.2511 15.2519C18.898 11.6069 23.3387 8.77145 28.2909 7.01363C25.9186 9.88473 23.9409 13.5614 22.3914 17.813H12.9331C13.6644 16.9232 14.4369 16.0663 15.2511 15.2519ZM10.2519 21.563H21.1872C19.7797 26.5519 18.9356 32.1621 18.7867 38.125H5.05109C5.37094 32.0619 7.23437 26.42 10.2519 21.563ZM10.2519 58.4371C7.23437 53.58 5.37094 47.9382 5.05109 41.875H18.7997C18.9498 47.8319 19.77 53.4519 21.1756 58.4372L10.2519 58.4371ZM15.2511 64.7478C14.4369 63.9336 13.6642 63.0768 12.933 62.1869H22.3975C23.0662 64.0266 23.8067 65.7719 24.6338 67.376C25.7203 69.4757 26.9397 71.3554 28.2819 72.9838C23.3331 71.226 18.8955 68.3905 15.2511 64.7478ZM38.1247 74.948C37.5394 74.9174 36.9577 74.8735 36.3803 74.8136C35.46 74.4011 34.5487 73.8371 33.6459 73.101C30.8909 70.8574 28.3372 67.0586 26.3963 62.1869H38.1245V74.948H38.1247ZM38.1247 58.4371H25.0878C23.607 53.5666 22.6947 47.9197 22.5366 41.8749H38.1245V58.4371H38.1247ZM38.1247 38.125H22.5484C22.7059 32.0766 23.6227 26.4346 25.1045 21.563H38.1248L38.1247 38.125ZM38.1247 17.813H26.4136C26.8994 16.5958 27.4084 15.4205 27.9658 14.345C29.6283 11.1224 31.5861 8.58098 33.6461 6.89879C34.5488 6.16285 35.46 5.59879 36.3805 5.18629C36.9578 5.1266 37.5394 5.08254 38.1248 5.05207L38.1247 17.813ZM69.7487 21.563C72.7662 26.42 74.6291 32.0621 74.9489 38.125H61.2003C61.0502 32.1682 60.23 26.5482 58.8237 21.563H69.7487ZM64.7489 15.2519C65.5631 16.0661 66.3358 16.9232 67.067 17.813H57.6019C56.933 15.9735 56.192 14.2279 55.3656 12.6239C54.2792 10.5244 53.0597 8.64457 51.7177 7.01613C56.6669 8.77504 61.1039 11.6096 64.7489 15.2519ZM41.8747 5.05207C42.46 5.08254 43.0417 5.1277 43.6184 5.18629C44.5387 5.6002 45.4502 6.16285 46.3534 6.89879C49.1091 9.14238 51.6622 12.9411 53.603 17.8129H41.8747V5.05207ZM41.8747 21.563H54.9116C56.3922 26.4335 57.3053 32.0802 57.4628 38.125H41.8747V21.563ZM41.8747 41.875H57.4505C57.2931 47.9235 56.3764 53.5653 54.8944 58.4372H41.8747V41.875ZM46.3533 73.101C45.45 73.8371 44.5386 74.3999 43.6183 74.8136C43.0416 74.8722 42.4598 74.9174 41.8745 74.948V62.1871H53.5856C53.0998 63.4041 52.5908 64.5796 52.0336 65.655C50.3713 68.8775 48.4133 71.4189 46.3533 73.101ZM64.7489 64.7478C61.1027 68.3928 56.6608 71.2285 51.7084 72.9861C54.0814 70.115 56.0577 66.4385 57.608 62.1869H67.067C66.3356 63.0769 65.5631 63.9338 64.7489 64.7478ZM69.7487 58.4371H58.8116C60.2191 53.4482 61.0637 47.8368 61.2127 41.8749H74.9489C74.6291 47.9382 72.7662 53.58 69.7487 58.4371Z" fill="#CBAA5D"/>
</g>
</g>
<defs>
<clipPath id="clip0_209_3046">
<rect width="80" height="80" fill="white"/>
</clipPath>
</defs>
</svg>
