<svg width="80" height="80" viewBox="0 0 80 80" fill="none" xmlns="http://www.w3.org/2000/svg">
<g id="Component 32">
<path id="Vector" d="M28 48H32V20H28C25.7912 20 24 21.7912 24 24V44C24 46.2088 25.7912 48 28 48ZM72 44V24C72 21.7912 70.2088 20 68 20H64V48H68C70.2088 48 72 46.2088 72 44ZM78 56H16V10C16 8.895 15.105 8 14 8H2C0.895 8 0 8.895 0 10V14C0 15.105 0.895 16 2 16H8V62C8 63.105 8.895 64 10 64H20.3675C20.1438 64.6288 20 65.295 20 66C20 69.3138 22.6862 72 26 72C29.3138 72 32 69.3138 32 66C32 65.295 31.8562 64.6288 31.6325 64H56.3675C56.1438 64.6288 56 65.295 56 66C56 69.3138 58.6862 72 62 72C65.3138 72 68 69.3138 68 66C68 65.295 67.8562 64.6288 67.6325 64H78C79.105 64 80 63.105 80 62V58C80 56.895 79.105 56 78 56ZM60 20V14C60 10.6862 57.3138 8 54 8H42C38.6862 8 36 10.6862 36 14V48H60V20ZM54 20H42V14H54V20Z" fill="#CBAA5D"/>
</g>
</svg>
