<svg width="80" height="80" viewBox="0 0 80 80" fill="none" xmlns="http://www.w3.org/2000/svg">
<g id="Component 32">
<path id="Vector" d="M68.5333 25.2366L41.8667 7.23661C41.3154 6.86402 40.6653 6.66492 40 6.66492C39.3347 6.66492 38.6846 6.86402 38.1333 7.23661L11.4667 25.2366C11.0148 25.5421 10.6447 25.9537 10.389 26.4355C10.1333 26.9173 9.99972 27.4545 10 27.9999V69.9999C10 70.884 10.3512 71.7318 10.9763 72.357C11.6014 72.9821 12.4493 73.3333 13.3333 73.3333H66.6667C67.5507 73.3333 68.3986 72.9821 69.0237 72.357C69.6488 71.7318 70 70.884 70 69.9999V27.9999C70.0003 27.4545 69.8667 26.9173 69.611 26.4355C69.3553 25.9537 68.9852 25.5421 68.5333 25.2366ZM63.3333 66.6666H16.6667V29.7733L40 14.0199L63.3333 29.7733V66.6666ZM43.3333 33.3333V39.9999H50V46.6666H43.3333V53.3333H36.6667V46.6666H30V39.9999H36.6667V33.3333H43.3333Z" fill="#CBAA5D"/>
</g>
</svg>
