<svg width="80" height="80" viewBox="0 0 80 80" fill="none" xmlns="http://www.w3.org/2000/svg">
<g id="Frame">
<path id="Vector" d="M63.3332 66.6666H16.6665V69.9999C16.6665 71.8409 15.1741 73.3333 13.3332 73.3333H9.99984C8.1589 73.3333 6.6665 71.8409 6.6665 69.9999V39.9999L15.0443 17.6591C16.0201 15.0571 18.5075 13.3333 21.2865 13.3333H58.7132C61.4922 13.3333 63.9795 15.0571 64.9555 17.6591L73.3332 39.9999V69.9999C73.3332 71.8409 71.8408 73.3333 69.9998 73.3333H66.6665C64.8255 73.3333 63.3332 71.8409 63.3332 69.9999V66.6666ZM13.7865 39.9999H66.2132L58.7132 19.9999H21.2865L13.7865 39.9999ZM21.6665 56.6666C24.4279 56.6666 26.6665 54.4279 26.6665 51.6666C26.6665 48.9053 24.4279 46.6666 21.6665 46.6666C18.9051 46.6666 16.6665 48.9053 16.6665 51.6666C16.6665 54.4279 18.9051 56.6666 21.6665 56.6666ZM58.3332 56.6666C61.0945 56.6666 63.3332 54.4279 63.3332 51.6666C63.3332 48.9053 61.0945 46.6666 58.3332 46.6666C55.5718 46.6666 53.3332 48.9053 53.3332 51.6666C53.3332 54.4279 55.5718 56.6666 58.3332 56.6666Z" fill="#CBAA5D"/>
</g>
</svg>
