<svg width="85" height="85" viewBox="0 0 85 85" fill="none" xmlns="http://www.w3.org/2000/svg">
<circle cx="42.5" cy="42.5" r="39" stroke="#CBAA5D" stroke-width="7"/>
<g clip-path="url(#clip0_333_2651)">
<path d="M31.4639 35.2843C32.1136 36.5744 32.2424 38.0649 31.8238 39.4474C31.4052 40.8299 30.4713 41.9985 29.2151 42.7116C26.8277 43.5516 23.9629 41.5799 22.8193 38.3142C22.1686 37.0241 22.0388 35.5332 22.4569 34.15C22.8749 32.7669 23.8088 31.5975 25.0652 30.8839C27.4526 30.0439 30.3174 32.0186 31.4639 35.2843ZM50.6837 58.5036C49.6419 58.5051 48.6101 58.3006 47.6476 57.9021C46.685 57.5035 45.8107 56.9186 45.0749 56.1811C44.5244 55.6311 43.7781 55.3221 42.9999 55.3221C42.2218 55.3221 41.4755 55.6311 40.925 56.1811C39.4341 57.655 37.4205 58.4789 35.3241 58.4728C33.2277 58.4668 31.2189 57.6313 29.7365 56.149C28.2541 54.6666 27.4187 52.6578 27.4127 50.5614C27.4066 48.465 28.2305 46.4514 29.7044 44.9605C31.4499 43.2136 33.5225 41.8278 35.8038 40.8823C38.0852 39.9369 40.5305 39.4502 42.9999 39.4502C45.4694 39.4502 47.9147 39.9369 50.196 40.8823C52.4774 41.8278 54.55 43.2136 56.2955 44.9605C57.4047 46.0703 58.1599 47.484 58.4657 49.023C58.7715 50.562 58.6142 52.1571 58.0135 53.6066C57.4129 55.0561 56.3959 56.2951 55.0913 57.1667C53.7866 58.0384 52.2528 58.5036 50.6837 58.5036ZM42.2042 29.8523C42.5785 33.7929 40.5448 37.2089 37.6652 37.4801C34.7856 37.7512 32.1477 34.7773 31.7764 30.8367C31.4021 26.899 33.4357 23.483 36.3153 23.2119C39.1949 22.9378 41.8298 25.9117 42.2042 29.8523ZM43.7957 29.8523C43.4214 33.7929 45.4551 37.2089 48.3347 37.4801C51.2143 37.7512 53.8492 34.7773 54.2235 30.8367C54.5978 26.899 52.5642 23.483 49.6846 23.2119C46.805 22.9378 44.1671 25.9117 43.7957 29.8523ZM54.5359 35.2813C53.8845 36.5721 53.7547 38.064 54.1734 39.4478C54.5921 40.8317 55.5271 42.0014 56.7848 42.7146C59.1722 43.5516 62.037 41.5799 63.1806 38.3142C63.8313 37.0241 63.9611 35.5332 63.543 34.15C63.125 32.7669 62.1911 31.5975 60.9347 30.8839C58.5473 30.0439 55.6825 32.0156 54.5359 35.2813Z" fill="#CBAA5D"/>
<line x1="16.2498" y1="66.2148" x2="67.2498" y2="16.2148" stroke="#CBAA5D" stroke-width="5"/>
</g>
<defs>
<clipPath id="clip0_333_2651">
<rect width="56" height="56" fill="white" transform="translate(15 12)"/>
</clipPath>
</defs>
</svg>
