<svg width="80" height="80" viewBox="0 0 80 80" fill="none" xmlns="http://www.w3.org/2000/svg">
<g id="playground-castle-svgrepo-com (1) 1" clip-path="url(#clip0_209_3156)">
<g id="Group">
<g id="Group_2">
<path id="Vector" d="M64.1936 38.6458H61.3855L44.3571 15.6706H47.891C49.8229 15.6706 51.6139 14.6258 52.5649 12.9441C53.2971 11.6491 53.4488 10.1223 53.0255 8.73266C53.4488 7.34313 53.2971 5.81609 52.5649 4.52141C51.6143 2.83984 49.8233 1.79484 47.891 1.79484H42.2758C42.1935 1.79484 42.1118 1.79719 42.0304 1.80109C41.7202 0.759844 40.7566 0 39.6144 0C38.2218 0 37.0927 1.12906 37.0927 2.52172V12.6744L17.8432 38.6458H15.8061C14.4135 38.6458 13.2844 39.7748 13.2844 41.1675C13.2844 42.5602 14.4135 43.6892 15.8061 43.6892H19.1129H20.659V74.9567H20.5468C19.1541 74.9567 18.025 76.0858 18.025 77.4784C18.025 78.8711 19.1541 80.0002 20.5468 80.0002H58.6819C60.0746 80.0002 61.2036 78.8711 61.2036 77.4784C61.2036 76.0858 60.0746 74.9567 58.6819 74.9567H58.5697V43.6892H60.1157H64.1935C65.5861 43.6892 66.7152 42.5602 66.7152 41.1675C66.7152 39.7748 65.5863 38.6458 64.1936 38.6458ZM42.2758 6.83844H47.891C48.0085 6.83844 48.1169 6.90172 48.1747 7.00406C48.2325 7.10625 48.2308 7.23188 48.1704 7.3325L47.328 8.73312L48.1704 10.1336C48.2308 10.2342 48.2325 10.3597 48.1747 10.462C48.1169 10.5644 48.0085 10.6277 47.891 10.6277H42.2758V6.83844ZM44.8215 74.9305H34.4072V64.842C34.4072 61.9708 36.7432 59.635 39.6143 59.635C42.4854 59.635 44.8213 61.9709 44.8213 64.842V74.9305H44.8215ZM53.5265 74.9305H49.8647V64.842C49.8647 59.19 45.2663 54.5916 39.6143 54.5916C33.9622 54.5916 29.3638 59.19 29.3638 64.842V74.9305H25.7021V43.6892H53.5265V74.9305ZM24.1207 38.6461L39.6144 17.7419L55.1082 38.6461H24.1207Z" fill="#CBAA5D"/>
</g>
</g>
</g>
<defs>
<clipPath id="clip0_209_3156">
<rect width="80" height="80" fill="white"/>
</clipPath>
</defs>
</svg>
