<svg width="70" height="70" viewBox="0 0 70 70" fill="none" xmlns="http://www.w3.org/2000/svg">
<g id="Component 41" clip-path="url(#clip0_197_2837)">
<g id="Group">
<path id="Vector" d="M35.5459 63.0216C37.5281 65.0038 45.8664 59.8768 47.8485 57.8957L55.9967 49.7465L48.8198 42.5708L40.6718 50.7188C38.6909 52.6999 33.565 61.0395 35.5459 63.0216Z" fill="#CBAA5D"/>
<path id="Vector_2" d="M67.4366 31.1308C65.4545 29.1498 62.2419 29.1498 60.2609 31.1308L50.4609 40.9305L57.6378 48.1064L67.4366 38.3064C69.4177 36.3254 69.4177 33.113 67.4366 31.1308ZM54.6309 42.2299L53.3993 40.9996L60.2598 34.139L61.4891 35.3681L54.6309 42.2299Z" fill="#CBAA5D"/>
<path id="Vector_3" d="M51.2304 61.2763C49.3066 63.1979 41.992 68.2501 36.9035 68.2501C36.9024 68.2501 36.9035 68.2501 36.9024 68.2501C34.5139 68.2501 33.0081 67.2451 32.1654 66.4022C26.0461 60.2806 37.1698 47.4584 37.2912 47.3383L37.8549 46.7744C37.3157 46.1792 37.0833 45.3597 37.0833 43.7253C37.0833 42.5173 37.0833 40.2724 37.0833 38.2015C38.637 36.4762 39.202 36.691 40.5153 29.9169C43.1722 29.9169 43.0006 26.465 44.2532 23.4031C45.2757 20.9096 44.4189 19.8987 43.5598 19.4854C44.2625 10.3986 44.2625 4.14061 33.949 2.19934C30.2099 -1.00508 24.5693 0.0829322 21.8962 0.617503C19.2252 1.15221 16.8158 0.617503 16.8158 0.617503L17.2745 4.92278C13.3629 9.6166 15.3193 15.8746 14.689 19.5402C13.8695 19.9873 13.1295 21.018 14.1054 23.4031C15.3591 26.465 15.1863 29.9169 17.8431 29.9169C19.1575 36.691 19.7226 36.4761 21.2763 38.2015C21.2763 40.2725 21.2763 42.5173 21.2763 43.7253C21.2763 47.1772 20.1032 47.2368 17.4298 48.7309C10.9849 52.3334 2.586 54.4265 1.08223 65.6854C0.806874 67.7446 12.6298 69.9928 29.1804 70C45.7288 69.9928 57.5528 67.7446 57.2786 65.6854C56.8454 62.4449 55.8228 60.0051 54.4512 58.0557L51.2304 61.2763Z" fill="#CBAA5D"/>
</g>
</g>
<defs>
<clipPath id="clip0_197_2837">
<rect width="70" height="70" fill="white"/>
</clipPath>
</defs>
</svg>
