<svg width="80" height="80" viewBox="0 0 80 80" fill="none" xmlns="http://www.w3.org/2000/svg">
<g id="Group">
<path id="Vector" d="M17.6973 33.7965H24.7937C24.7937 24.0734 33.5066 18.7151 33.5066 18.7151C24.6083 19.5968 17.6973 26.007 17.6973 33.7965Z" fill="#CBAA5D"/>
<path id="Vector_2" d="M61.0838 59.0239L60.2912 58.5534C59.0872 57.8389 58.298 56.7142 58.1274 55.4709L57.3725 49.9523C57.3736 49.8715 57.376 49.7928 57.376 49.6995C57.3749 49.3523 57.3599 48.9403 57.2465 48.4804C57.1285 48.0264 56.9166 47.4801 56.3495 46.9864C55.4985 46.2573 54.3392 45.847 53.1306 45.847L53.0515 45.8479L51.3246 45.8751V45.9898C51.2616 46.0015 51.2043 46.0073 51.1401 46.022C50.7219 46.1192 50.2718 46.2826 49.8457 46.5295C49.4183 46.7764 49.0208 47.102 48.6772 47.4939L48.6064 47.5754L45.8267 51.8479C45.3398 52.5392 44.8812 52.9075 44.4802 53.1145C44.0745 53.3207 43.6949 53.4004 43.1873 53.4043C42.6741 53.4062 42.035 53.2954 41.3195 53.0912L22.0398 45.9968L21.9709 45.9775C21.518 45.8462 21.0505 45.7831 20.59 45.7831C19.2338 45.7831 17.9226 46.3304 17.0983 47.3036L17.0926 47.3093L17.0624 47.3462L17.064 47.3471C16.5286 47.9829 16.2646 48.7285 16.2651 49.4596C16.2635 50.5203 16.8195 51.5778 17.862 52.2932L17.8596 52.2953L40.2822 67.9909L40.4631 68.0676L52.2065 73.0195L51.5536 74.05L64.2338 80.0001L74.3247 64.0904L61.6437 58.1411L61.0838 59.0239ZM53.8761 70.3889L42.209 65.4681L20.0901 49.9842L20.0776 49.9764C19.8828 49.8442 19.7865 49.6576 19.7843 49.4592C19.7854 49.3229 19.8294 49.1967 19.9297 49.0771L19.9349 49.0712L19.9566 49.045C20.1061 48.8679 20.3438 48.7698 20.59 48.7689L20.8146 48.8L40.08 55.8887L40.1463 55.9081C41.1 56.1821 42.1092 56.3893 43.1871 56.3903C44.2165 56.3942 45.3183 56.1812 46.3081 55.6661C47.3024 55.1539 48.1523 54.3761 48.8579 53.3651L48.8728 53.3426L51.5499 49.2287C51.66 49.112 51.7528 49.0401 51.8248 48.9984C51.9508 48.9284 52.0471 48.8982 52.2474 48.8709C52.4444 48.8448 52.7269 48.8448 53.113 48.8418L53.1759 48.8409C53.4052 48.8506 53.6182 48.9265 53.7902 49.0537C53.8027 49.0917 53.8163 49.1442 53.8257 49.2131C53.8474 49.3434 53.8566 49.5165 53.8566 49.6992C53.8566 49.7936 53.8544 49.8907 53.8509 49.9907L53.8487 50.0957L54.6311 55.8156C54.9187 57.9067 56.2429 59.7954 58.2772 61.0018L58.3358 61.0357L59.4044 61.6715L53.8761 70.3889ZM67.7495 66.4654C67.7541 67.3587 66.9062 68.0859 65.8526 68.0898C64.8009 68.0946 63.9418 67.3734 63.9374 66.48C63.9328 65.5865 64.784 64.8595 65.8353 64.8546C66.8892 64.8507 67.745 65.572 67.7495 66.4654Z" fill="#CBAA5D"/>
<path id="Vector_3" d="M39.9996 7.79734C42.537 7.79734 44.5944 6.05141 44.5944 3.89922C44.5944 1.74594 42.537 0 39.9996 0C37.4624 0 35.405 1.74594 35.405 3.89906C35.4048 6.05141 37.4624 7.79734 39.9996 7.79734Z" fill="#CBAA5D"/>
<path id="Vector_4" d="M75.1909 37.3291H74.0854L74.0569 36.9558C72.9183 21.7597 57.9588 9.85531 39.9998 9.85437C22.0427 9.85531 7.08266 21.7597 5.94349 36.9558L5.91551 37.3291H4.80948C2.15774 37.3291 0 39.1597 0 41.41C0 43.6606 2.15774 45.4909 4.80948 45.4909H75.1911C77.843 45.4909 80 43.6605 80 41.41C79.9998 39.1597 77.8428 37.3291 75.1909 37.3291ZM9.68174 37.2289L9.72078 36.7994C10.2792 30.6886 13.4031 24.9328 18.5173 20.5903C24.2575 15.722 31.8872 13.04 39.9998 13.0391C48.1126 13.04 55.7423 15.722 61.4837 20.5903C66.5973 24.9337 69.7211 30.6895 70.2789 36.7994L70.3179 37.2289H9.68174Z" fill="#CBAA5D"/>
</g>
</svg>
