<svg width="80" height="80" viewBox="0 0 80 80" fill="none" xmlns="http://www.w3.org/2000/svg">
<g id="Component 32">
<path id="Vector" d="M13.8462 51.1459V58.621H58.7019V51.1459H13.8462Z" fill="#CBAA5D"/>
<path id="Vector_2" d="M59.946 51.1459V58.621H62.4378V51.1459H59.946Z" fill="#CBAA5D"/>
<path id="Vector_3" d="M63.6836 51.1459V58.621H66.1753V51.1459H63.6836Z" fill="#CBAA5D"/>
<path id="Vector_4" d="M62.1406 28.4102H55.72L56.0764 27.1809C56.2397 26.6562 56.347 25.8806 56.347 25.5638C56.347 21.8113 53.3058 18.7701 49.5534 18.7701H45.2729L44.136 23.0159H49.3356C51.2118 23.0159 52.7316 24.5374 52.7316 26.4119C52.7316 26.7486 52.682 27.0703 52.5913 27.3773L51.786 30.0967C51.7514 30.2122 51.7332 30.3327 51.7332 30.4581C51.7332 31.161 52.3042 31.732 53.0071 31.732H61.1539C62.9872 31.732 64.4756 33.2204 64.4756 35.0554C64.4756 35.0999 64.474 35.1428 64.4723 35.1874L63.936 48.1772H65.5366L67.2891 34.2517C67.3171 34.0389 67.3303 33.821 67.3303 33.6016C67.3303 30.7336 65.0069 28.4102 62.1406 28.4102Z" fill="#CBAA5D"/>
<path id="Vector_5" d="M61.1837 48.1773H62.3619V40.6081C62.3619 38.5438 60.687 36.8706 58.6227 36.8706H51.834C48.2433 36.8706 45.2962 34.1082 45.0057 30.5918C44.9678 30.1545 44.6047 29.8096 44.1592 29.8096H42.2814C37.0059 29.8096 32.7287 25.5325 32.7287 20.257C32.7287 18.2702 33.3376 16.427 34.3788 14.8973H29.4664C28.6892 16.5211 28.2568 18.3395 28.2568 20.257C28.2568 27.1397 33.8343 32.7172 40.7154 32.7172H41.6659C43.1658 36.6049 46.9364 39.3623 51.3522 39.3623H58.1425C59.4461 39.3623 60.5137 40.3639 60.6226 41.6378L61.1837 48.1773Z" fill="#CBAA5D"/>
</g>
</svg>
