<svg width="81" height="81" viewBox="0 0 81 81" fill="none" xmlns="http://www.w3.org/2000/svg">
<g id="table-tennis-4-svgrepo-com 1" clip-path="url(#clip0_209_3132)">
<g id="Group">
<path id="Vector" d="M80.0861 70.2965C80.0861 70.2965 70.7301 62.2166 66.9085 58.3507C64.9123 56.3297 64.8994 54.1235 65.3233 52.5592C66.2993 48.9634 68.1911 43.9286 68.516 37.8853L37.8843 68.5169C43.9316 68.1906 48.9651 66.2976 52.5595 65.3231C54.1226 64.9003 56.3301 64.9108 58.3512 66.9082C62.2169 70.7298 70.3009 80.0858 70.3009 80.0858C70.8109 80.6495 71.5298 80.9782 72.2906 80.9991C73.0538 81.0185 73.7883 80.7211 74.3259 80.1835L80.1853 74.3256C80.7228 73.7868 81.0177 73.0521 80.9981 72.2902C80.9785 71.5308 80.651 70.8092 80.0861 70.2965Z" fill="#CBAA5D"/>
<path id="Vector_2" d="M58.3227 12.2623C46.1614 -1.72016 25.1663 -5.36295 9.90253 9.90207C-5.36123 25.1658 -1.71971 46.161 12.2628 58.3233C19.3368 64.4777 25.9961 66.967 31.9271 67.6193L67.6199 31.9281C66.9662 25.9942 64.4796 19.3376 58.3227 12.2623ZM23.9842 45.2385C19.3395 45.241 15.5728 41.4731 15.5728 36.8284C15.5728 32.1836 19.3397 28.4171 23.9856 28.4171C28.6305 28.4171 32.3984 32.1837 32.3957 36.8271C32.3955 41.472 28.629 45.2385 23.9842 45.2385Z" fill="#CBAA5D"/>
</g>
</g>
<defs>
<clipPath id="clip0_209_3132">
<rect width="81" height="81" fill="white"/>
</clipPath>
</defs>
</svg>
