<svg width="80" height="80" viewBox="0 0 80 80" fill="none" xmlns="http://www.w3.org/2000/svg">
<g id="tv-monitor-svgrepo-com 1" clip-path="url(#clip0_209_2997)">
<g id="Group">
<g id="Group_2">
<path id="Vector" d="M80 10.3734H0V61.209H80V10.3734ZM75.8982 57.1072H4.10181V14.4755H75.8982V57.1072Z" fill="#CBAA5D"/>
<path id="Vector_2" d="M65.3577 67.5756C65.3577 66.4432 64.439 65.5245 63.3067 65.5245H16.449C15.3155 65.5245 14.3979 66.4432 14.3979 67.5756C14.3979 68.7091 15.3155 69.6263 16.449 69.6263H63.3069C64.439 69.6263 65.3577 68.7091 65.3577 67.5756Z" fill="#CBAA5D"/>
<path id="Vector_3" d="M14.0069 26.6663H19.7647C20.5197 26.6663 21.1319 27.2794 21.1319 28.0335V48.5509C21.1319 49.3068 21.7448 49.9181 22.4992 49.9181H25.707C26.4614 49.9181 27.0742 49.3065 27.0742 48.5509V28.0335C27.0742 27.2791 27.6865 26.6663 28.4415 26.6663H34.1609C34.9154 26.6663 35.5282 26.054 35.5282 25.299V23.0311C35.5282 22.2761 34.9151 21.6638 34.1609 21.6638H14.0069C13.2525 21.6638 12.6396 22.2761 12.6396 23.0311V25.299C12.6394 26.054 13.2522 26.6663 14.0069 26.6663Z" fill="#CBAA5D"/>
<path id="Vector_4" d="M51.4659 48.6229C51.7091 49.3387 52.5167 49.9181 53.2712 49.9181H56.1153C56.8711 49.9181 57.6802 49.3387 57.9243 48.6229L66.6743 22.9569C66.9187 22.2417 66.5033 21.6635 65.7505 21.6635H62.3508C61.5949 21.6635 60.8127 22.2511 60.6045 22.9775L55.17 41.7997C54.9617 42.5261 54.6238 42.5261 54.417 41.7997L49.0346 22.9787C48.8263 22.2522 48.0453 21.6649 47.292 21.6649H43.7189C42.963 21.6649 42.5464 22.2442 42.7882 22.9595L51.4659 48.6229Z" fill="#CBAA5D"/>
</g>
</g>
</g>
<defs>
<clipPath id="clip0_209_2997">
<rect width="80" height="80" fill="white"/>
</clipPath>
</defs>
</svg>
