<svg width="80" height="80" viewBox="0 0 80 80" fill="none" xmlns="http://www.w3.org/2000/svg">
<g id="wi-fi-svgrepo-com (1) 1">
<path id="Vector" d="M6.87053 29.1584C16.0031 21.1083 27.759 16.6667 39.933 16.6667C52.107 16.6667 63.863 21.1083 72.9957 29.1584C74.3767 30.3757 76.483 30.243 77.7003 28.862C78.9177 27.481 78.785 25.3746 77.404 24.1573C67.0537 15.0338 53.7303 10 39.933 10C26.1358 10 12.8125 15.0338 2.46222 24.1573C1.0812 25.3746 0.948502 27.481 2.16583 28.862C3.38317 30.243 5.48953 30.3757 6.87053 29.1584Z" fill="#CBAA5D"/>
<path id="Vector_2" d="M18.7334 41.052C24.7229 36.0634 32.2716 33.3313 40.0667 33.3313C47.8617 33.3313 55.4103 36.0634 61.4 41.052C62.8147 42.2304 64.9163 42.0387 66.0947 40.6244C67.2727 39.2097 67.0813 37.108 65.6667 35.9297C58.4793 29.943 49.421 26.6647 40.0667 26.6647C30.7125 26.6647 21.6542 29.943 14.4667 35.9297C13.0521 37.108 12.8606 39.2097 14.0388 40.6244C15.217 42.0387 17.3188 42.2304 18.7334 41.052Z" fill="#CBAA5D"/>
<path id="Vector_3" d="M39.95 49.995C36.4907 49.995 33.1171 51.0714 30.2971 53.075C28.7964 54.1414 26.7154 53.789 25.6492 52.288C24.583 50.7874 24.9352 48.7064 26.436 47.6404C30.384 44.8354 35.107 43.3284 39.95 43.3284C44.7927 43.3284 49.5157 44.8354 53.4637 47.6404C54.9647 48.7064 55.3167 50.7874 54.2507 52.288C53.1843 53.789 51.1033 54.1414 49.6027 53.075C46.7827 51.0714 43.409 49.995 39.95 49.995Z" fill="#CBAA5D"/>
<path id="Vector_4" d="M39.9334 66.6576C41.7744 66.6576 43.2668 65.1653 43.2668 63.3243C43.2668 61.4833 41.7744 59.991 39.9334 59.991C38.0924 59.991 36.6001 61.4833 36.6001 63.3243C36.6001 65.1653 38.0924 66.6576 39.9334 66.6576Z" fill="#CBAA5D"/>
</g>
</svg>
