<svg width="80" height="79" viewBox="0 0 80 79" fill="none" xmlns="http://www.w3.org/2000/svg">
<path id="XMLID_443_" d="M22.3405 48.6432C22.4176 48.8316 22.4601 49.0377 22.4601 49.2536V57.1415C22.4601 58.0324 21.738 58.7545 20.8471 58.7545C19.9562 58.7545 19.2342 58.0324 19.2342 57.1415V52.9677L18.9497 53.2335C18.2988 53.8414 17.278 53.8068 16.6699 53.1557C16.0618 52.5048 16.0966 51.4842 16.7475 50.8759L19.7435 48.0772C19.7634 48.0586 19.7838 48.0403 19.8048 48.0226L19.8055 48.0219L19.8075 48.0201L19.8098 48.0181C19.9369 47.9111 20.0765 47.8271 20.2229 47.7656L20.2249 47.7647L20.2259 47.7643C20.6166 47.6012 21.1057 47.6054 21.4928 47.7751C21.674 47.8541 21.8434 47.9677 21.9905 48.116L21.9923 48.1179C22.0291 48.1548 22.064 48.1937 22.097 48.2341L22.0988 48.2364C22.2013 48.3624 22.2818 48.4995 22.3405 48.6432ZM20.6471 65.5427C13.8401 65.5427 8.30207 60.0047 8.30207 53.1975C8.30207 46.3903 13.8401 40.8524 20.6471 40.8524C27.4543 40.8524 32.9923 46.3903 32.9923 53.1975C32.9923 60.0047 27.4543 65.5427 20.6471 65.5427ZM29.7664 53.1975C29.7664 48.1692 25.6754 44.0784 20.6471 44.0784C15.6188 44.0784 11.528 48.1692 11.528 53.1975C11.528 58.226 15.6188 62.3168 20.6471 62.3168C25.6756 62.3168 29.7664 58.226 29.7664 53.1975ZM22.8979 69.0317C22.007 69.0317 21.2849 69.7538 21.2849 70.6447C21.2849 71.5356 22.007 72.2576 22.8979 72.2576C32.3466 72.2576 40.0338 64.5704 40.0338 55.1219C40.0338 54.231 39.3117 53.509 38.4208 53.509C37.5299 53.509 36.8079 54.231 36.8079 55.1219C36.8077 62.7917 30.5679 69.0317 22.8979 69.0317ZM80 70.6061C79.9998 71.3277 79.7193 72.0053 79.2104 72.5141L75.0997 76.625C74.591 77.1338 73.9134 77.4141 73.1917 77.4142C72.4704 77.4142 71.792 77.1341 71.283 76.6253L53.0011 58.3434C52.698 58.0401 52.482 57.682 52.3539 57.3007L48.0966 52.793C47.4849 52.1453 47.5141 51.1243 48.1617 50.5128C48.8093 49.9011 49.8303 49.9307 50.4418 50.5779L53.6031 53.9251L56.51 51.0182L6.51402 3.86106L6.10271 4.27236L28.0769 27.2509C28.6927 27.8948 28.6698 28.9158 28.026 29.5316C27.3823 30.1474 26.3613 30.1248 25.7455 29.4806L2.68109 5.362C2.07516 4.72829 2.08627 3.72664 2.70636 3.10655L5.34068 0.472232C5.95755 -0.144456 6.95328 -0.158972 7.58789 0.439435L59.8861 49.768C60.2674 49.8963 60.6255 50.1121 60.9286 50.4151L79.2109 68.6973C79.7199 69.2064 80.0002 69.8844 80 70.6061ZM76.5569 70.6054L59.0206 53.0693L55.6553 56.4347L73.1913 73.9709L76.5569 70.6054ZM45.7954 55.1217C45.7954 67.7474 35.5236 78.0193 22.8977 78.0193C10.2719 78.0193 0 67.7476 0 55.1217C0 42.4959 10.2719 32.224 22.8979 32.224C35.5236 32.2242 45.7954 42.496 45.7954 55.1217ZM42.5695 55.1217C42.5695 44.2748 33.7449 35.4499 22.8977 35.4499C12.0508 35.4501 3.22591 44.2748 3.22591 55.1217C3.22591 65.9685 12.0508 74.7934 22.8979 74.7934C33.7449 74.7934 42.5695 65.9687 42.5695 55.1217Z" fill="#CBAA5D"/>
</svg>
