<svg width="50" height="50" viewBox="0 0 50 50" fill="none" xmlns="http://www.w3.org/2000/svg">
<g id="bath-svgrepo-com 1" clip-path="url(#clip0_150_1649)">
<path id="Vector" d="M1.83765 11.4702C1.28687 11.4702 0.837646 11.9194 0.837646 12.4702V15.4702H50.8376V12.4702C50.8376 11.9194 50.3923 11.4702 49.8376 11.4702H1.83765ZM1.83765 17.4702C2.97827 17.4702 3.83765 18.3296 3.83765 19.4702V26.4702C3.83765 31.478 7.18921 35.7046 11.7751 37.0327C11.5603 37.9116 10.8298 38.4702 9.83765 38.4702C9.47827 38.4663 9.14233 38.6538 8.95874 38.9663C8.77905 39.2788 8.77905 39.6616 8.95874 39.9741C9.14233 40.2866 9.47827 40.4741 9.83765 40.4702C11.7244 40.4702 13.2908 39.1655 13.7126 37.4077C14.0837 37.4468 14.4587 37.4702 14.8376 37.4702H36.8376C37.2166 37.4702 37.5916 37.4468 37.9626 37.4077C38.3845 39.1655 39.9509 40.4702 41.8376 40.4702C42.197 40.4741 42.533 40.2866 42.7166 39.9741C42.8962 39.6616 42.8962 39.2788 42.7166 38.9663C42.533 38.6538 42.197 38.4663 41.8376 38.4702C40.8455 38.4702 40.115 37.9116 39.9001 37.0327C44.4861 35.7046 47.8376 31.478 47.8376 26.4702V19.4702C47.8376 18.3296 48.697 17.4702 49.8376 17.4702H1.83765Z" fill="#443939"/>
</g>
<defs>
<clipPath id="clip0_150_1649">
<rect width="50" height="50" fill="white"/>
</clipPath>
</defs>
</svg>
