<svg width="84" height="84" viewBox="0 0 84 84" fill="none" xmlns="http://www.w3.org/2000/svg">
<g id="drink (1) 1">
<path id="Vector" d="M74.1429 25.7192C74.2768 25.5068 74.3472 25.2605 74.3458 25.0093C74.3444 24.7582 74.2713 24.5127 74.1351 24.3017C73.9966 24.0926 73.802 23.9267 73.5736 23.8232C73.3451 23.7196 73.0921 23.6826 72.8436 23.7164L41.6691 28.2445C41.6278 28.2607 41.5875 28.2791 41.5483 28.2996L11.1666 23.6035C10.9186 23.5678 10.6656 23.6028 10.4367 23.7045C10.2078 23.8062 10.0122 23.9705 9.87243 24.1784C9.73413 24.3875 9.65865 24.632 9.65493 24.8827C9.65121 25.1335 9.7194 25.38 9.85143 25.5932L22.3569 45.7454L19.4248 64.7241L12.9384 63.7187C12.5951 63.6695 12.2461 63.7568 11.9663 63.9619C11.6866 64.1671 11.4984 64.4737 11.4422 64.816C11.3894 65.1595 11.4749 65.5099 11.6801 65.7904C11.8853 66.0709 12.1934 66.2586 12.5368 66.3122L28.1031 68.722C28.1691 68.7322 28.2358 68.7374 28.3026 68.7377C28.6357 68.7408 28.9575 68.6171 29.2027 68.3917C29.448 68.1663 29.5984 67.8561 29.6235 67.5239C29.6485 67.1918 29.5463 66.8625 29.3376 66.6029C29.1289 66.3433 28.8292 66.1727 28.4994 66.1259L22.0157 65.1231L24.9504 46.1444L42.0654 31.4706L58.8576 46.1339L61.6164 65.1362L55.1222 66.0786C54.7934 66.1255 54.4945 66.2952 54.286 66.5537C54.0774 66.8122 53.9745 67.1401 53.9982 67.4714C54.0218 67.8027 54.1702 68.1127 54.4133 68.3389C54.6565 68.5652 54.9764 68.6908 55.3086 68.6905C55.3735 68.69 55.4384 68.6856 55.5028 68.6774L71.0901 66.4146C71.4346 66.3633 71.7449 66.1777 71.953 65.8983C72.1611 65.6189 72.25 65.2684 72.2004 64.9236C72.1435 64.5825 71.9567 64.2766 71.6793 64.0701C71.4018 63.8636 71.0552 63.7725 70.7121 63.8159L64.2178 64.7582L61.4563 45.7585L74.1429 25.7192ZM52.4762 37.0724C53.3027 36.7419 54.053 36.2461 54.6812 35.6155C55.9234 36.3104 57.3601 36.5762 58.7686 36.3717C60.1772 36.1671 61.479 35.5037 62.4722 34.4841C63.2537 34.9099 64.1139 35.1716 65.0001 35.2532L59.7973 43.4695L52.4762 37.0724ZM24.0343 43.4721L18.9077 35.2086C19.7938 35.1356 20.6557 34.8829 21.4408 34.4657C22.4249 35.4949 23.7211 36.1706 25.1283 36.388C26.5355 36.6053 27.9752 36.3523 29.2239 35.668C29.8464 36.3046 30.5923 36.8075 31.4158 37.1459L24.0343 43.4721ZM33.8676 35.0406C33.6813 35.0382 33.4954 35.0233 33.3111 34.996C32.7572 34.9095 32.2287 34.704 31.7619 34.3936C31.2951 34.0832 30.9012 33.6752 30.6073 33.1979C30.5071 33.0398 30.3742 32.905 30.2176 32.8025C30.061 32.7 29.8843 32.6322 29.6993 32.6036C29.5144 32.575 29.3254 32.5863 29.1452 32.6367C28.9649 32.6872 28.7976 32.7756 28.6543 32.896C28.2299 33.2625 27.7309 33.5324 27.1919 33.6871C26.6529 33.8418 26.0868 33.8776 25.5326 33.792C24.9784 33.7063 24.4494 33.5014 23.9822 33.1912C23.5151 32.881 23.1208 32.4731 22.8268 31.9956C22.7263 31.8371 22.5931 31.7019 22.4361 31.5991C22.279 31.4963 22.1018 31.4283 21.9163 31.3997C21.7308 31.3711 21.5413 31.3826 21.3606 31.4333C21.1799 31.484 21.0121 31.5728 20.8686 31.6937C20.4406 32.056 19.9406 32.3231 19.4016 32.4774C18.8626 32.6317 18.297 32.6697 17.7422 32.5889C17.5529 32.5509 17.3668 32.4983 17.1857 32.4314L13.5868 26.6327L39.0756 30.5729L33.8676 35.0406ZM70.3971 26.7272L66.7273 32.5232C66.5493 32.5758 66.3677 32.6153 66.1839 32.6414C65.628 32.7236 65.0608 32.6833 64.5221 32.5233C63.9834 32.3632 63.4862 32.0872 63.0654 31.7147C62.9218 31.5956 62.7551 31.5073 62.5758 31.4554C62.3965 31.4034 62.2084 31.389 62.0233 31.4129C61.8382 31.44 61.661 31.5062 61.5035 31.6072C61.346 31.7081 61.2118 31.8414 61.1098 31.9982C60.8095 32.4713 60.411 32.8744 59.9414 33.1801C59.4717 33.4858 58.9419 33.687 58.3877 33.7701C57.833 33.8516 57.2672 33.8114 56.7296 33.6523C56.192 33.4932 55.6954 33.219 55.2744 32.8487C55.1311 32.7279 54.9642 32.6385 54.7843 32.586C54.6043 32.5336 54.4154 32.5193 54.2297 32.5442C54.0448 32.572 53.868 32.6388 53.711 32.7402C53.5539 32.8416 53.4202 32.9752 53.3188 33.1322C52.9861 33.7063 52.501 34.1772 51.9173 34.4927C51.3335 34.8082 50.6739 34.956 50.0113 34.9199L44.8716 30.4311L70.3971 26.7272ZM41.8528 20.5112C42.0252 20.5112 42.1958 20.4773 42.3551 20.4113C42.5143 20.3454 42.659 20.2487 42.7809 20.1268C42.9028 20.0049 42.9994 19.8602 43.0654 19.701C43.1314 19.5418 43.1653 19.3711 43.1653 19.1987V16.5737C43.1653 16.2256 43.027 15.8918 42.7809 15.6457C42.5347 15.3995 42.2009 15.2612 41.8528 15.2612C41.5047 15.2612 41.1709 15.3995 40.9247 15.6457C40.6786 15.8918 40.5403 16.2256 40.5403 16.5737V19.1987C40.5403 19.5468 40.6786 19.8807 40.9247 20.1268C41.1709 20.3729 41.5047 20.5112 41.8528 20.5112ZM48.3943 23.1362C48.5664 23.1365 48.7368 23.1028 48.8958 23.037C49.0548 22.9712 49.1993 22.8747 49.3209 22.753L51.1768 20.8971C51.4159 20.6496 51.5482 20.318 51.5452 19.9739C51.5422 19.6298 51.4042 19.3006 51.1608 19.0572C50.9175 18.8139 50.5883 18.6758 50.2442 18.6728C49.9 18.6699 49.5685 18.8021 49.3209 19.0412L47.4651 20.8971C47.2819 21.0808 47.1573 21.3147 47.107 21.5691C47.0567 21.8236 47.0829 22.0872 47.1823 22.3268C47.2818 22.5664 47.4499 22.7711 47.6657 22.9152C47.8814 23.0593 48.1349 23.1362 48.3943 23.1362ZM33.5736 22.753C33.8229 22.9822 34.1512 23.1061 34.4898 23.0988C34.8284 23.0916 35.1511 22.9537 35.3905 22.7141C35.6298 22.4744 35.7672 22.1515 35.774 21.8129C35.7807 21.4743 35.6563 21.1461 35.4268 20.8971L33.5709 19.0412C33.3234 18.8021 32.9919 18.6699 32.6477 18.6728C32.3036 18.6758 31.9744 18.8139 31.731 19.0572C31.4877 19.3006 31.3497 19.6298 31.3467 19.9739C31.3437 20.318 31.476 20.6496 31.7151 20.8971L33.5736 22.753Z" fill="#CBAA5D"/>
</g>
</svg>
