<svg width="50" height="50" viewBox="0 0 50 50" fill="none" xmlns="http://www.w3.org/2000/svg">
<g id="drinks-svgrepo-com (1) 1" clip-path="url(#clip0_150_1835)">
<g id="Group">
<path id="Vector" d="M24.0745 19.8218L6.87381 15.9839C6.78862 15.9651 6.70276 15.9558 6.61825 15.9558C6.22011 15.9558 5.84199 16.1585 5.62398 16.5053C4.75361 17.8903 4.00041 19.296 3.40479 20.6297L25.24 25.5346C25.2693 24.0654 25.1851 22.4612 24.9841 20.8248C24.9238 20.3317 24.5595 19.9302 24.0745 19.8218Z" fill="#443939"/>
<path id="Vector_2" d="M14.4106 46.6852L10.9483 45.9125L12.1136 40.6856C11.5562 40.6295 11.0013 40.5416 10.4535 40.4192C9.8995 40.2955 9.36229 40.1367 8.83973 39.9524L7.67408 45.1819L4.21179 44.4095C3.30825 44.2071 2.41128 44.777 2.2096 45.6812C2.00775 46.5852 2.57727 47.4817 3.48115 47.6837L13.6801 49.9596C13.803 49.9871 13.9261 50.0002 14.0471 50.0002C14.8155 50.0002 15.5084 49.4691 15.6827 48.6877C15.8843 47.7835 15.3148 46.8871 14.4106 46.6852Z" fill="#443939"/>
<path id="Vector_3" d="M2.15091 24.2475C0.755122 30.5049 4.709 36.7313 10.9649 38.1273C11.8007 38.3136 12.6553 38.4082 13.505 38.4082C16.1055 38.4082 18.6669 37.5138 20.7164 35.8901C22.7967 34.2423 24.2614 31.9052 24.8403 29.3098C24.9369 28.8761 25.0156 28.4049 25.078 27.9049L2.54283 22.8433C2.3824 23.3333 2.24974 23.8044 2.15091 24.2475Z" fill="#443939"/>
<path id="Vector_4" d="M45.1695 4.40236C44.4905 3.12593 43.653 1.79074 42.704 0.484175C42.4791 0.174747 42.1234 0 41.7545 0C41.6437 0 41.5319 0.0158249 41.422 0.0481482L24.5483 5.02374C24.0718 5.16414 23.7355 5.58923 23.7082 6.08519C23.6165 7.74461 23.6417 9.3638 23.773 10.8377L45.1695 4.40236Z" fill="#443939"/>
<path id="Vector_5" d="M35.5475 22.8564C36.6552 22.8564 37.7606 22.696 38.8326 22.3798C44.9702 20.5703 48.4921 14.1027 46.683 7.96267C46.5512 7.51571 46.3818 7.0418 46.1818 6.55005L24.0986 13.1918C24.1921 13.6674 24.2991 14.115 24.4205 14.527C25.8653 19.4309 30.4407 22.8561 35.5468 22.8564C35.5471 22.8564 35.5471 22.8564 35.5475 22.8564Z" fill="#443939"/>
<path id="Vector_6" d="M48.0605 29.3131C47.7984 28.4249 46.8659 27.9161 45.9772 28.1786L42.5843 29.1791L41.0753 24.0579C40.5664 24.2769 40.0412 24.4715 39.4967 24.6319C38.9568 24.7912 38.4094 24.9154 37.858 25.0085L39.3663 30.1279L35.9723 31.1289C35.0836 31.391 34.5759 32.3237 34.8376 33.2121C35.053 33.9424 35.7211 34.4154 36.4459 34.4154C36.6028 34.4154 36.7629 34.3932 36.921 34.3466L46.926 31.3962C47.8146 31.1343 48.3222 30.2016 48.0605 29.3131Z" fill="#443939"/>
</g>
</g>
<defs>
<clipPath id="clip0_150_1835">
<rect width="50" height="50" fill="white"/>
</clipPath>
</defs>
</svg>
