<svg width="47" height="47" viewBox="0 0 47 47" fill="none" xmlns="http://www.w3.org/2000/svg">
<g id="gym-running-foot-run-svgrepo-com (1) 1">
<g id="Group">
<path id="Vector" d="M39.6562 47H26.2906C24.0875 47 22.1781 46.1187 20.5625 44.65L0.440625 24.5281C-0.146875 23.9406 -0.146875 23.0594 0.440625 22.4719C1.02813 21.8844 1.90938 21.8844 2.49688 22.4719L22.6187 42.5938C23.6469 43.475 24.8219 44.0625 26.2906 44.0625H39.6562C40.5375 44.0625 41.125 44.65 41.125 45.5312C41.125 46.4125 40.5375 47 39.6562 47Z" fill="#CBAA5D"/>
</g>
<path id="Vector_2" d="M39.8032 33.7812H24.9688C24.0876 33.7812 23.5001 33.1937 23.5001 32.3125C23.5001 31.4312 24.0876 30.8437 24.9688 30.8437H33.4876C32.9001 30.4031 32.4595 29.9625 32.0188 29.375H22.0313C21.1501 29.375 20.5626 28.7875 20.5626 27.9062C20.5626 27.025 21.1501 26.4375 22.0313 26.4375H30.2563C29.6688 24.8218 29.3751 22.9125 29.3751 20.5625C29.3751 20.1218 29.2282 19.8281 28.9345 19.5343C28.6407 19.2406 28.347 19.0937 27.9063 19.0937H26.4376C21.5907 19.0937 16.1563 13.6593 16.1563 8.81247C16.1563 8.22497 15.7157 7.63747 15.2751 7.49059C14.6876 7.19684 13.9532 7.34372 13.5126 7.78434L3.23135 19.5343C2.79072 20.1218 2.79072 21.0031 3.23135 21.5906L22.0313 40.2437C23.5001 41.7125 25.5563 42.5937 27.7595 42.5937H39.6564C40.3907 42.5937 40.9782 42.1531 41.1251 41.4187L41.7126 38.775C42.0063 37.4531 41.8595 36.1312 41.1251 35.1031C40.8314 34.6625 40.3907 34.2218 39.8032 33.7812ZM15.422 26.4375C13.3657 26.4375 11.7501 24.8218 11.7501 22.7656C11.7501 20.7093 13.3657 19.0937 15.422 19.0937C17.4782 19.0937 19.0938 20.7093 19.0938 22.7656C19.0938 24.8218 17.4782 26.4375 15.422 26.4375Z" fill="#CBAA5D"/>
<g id="Group_2">
<path id="Vector_3" d="M27.9062 23.0594C27.3187 23.0594 26.7312 22.6188 26.4374 22.0313C25.4093 18.2125 26.4374 13.9531 29.3749 11.1625L40.0968 0.440625C40.6843 -0.146875 41.5656 -0.146875 42.1531 0.440625C42.7406 1.02813 42.7406 1.90938 42.1531 2.49688L31.4312 13.2188C29.3749 15.275 28.4937 18.3594 29.2281 21.2969C29.3749 22.0313 28.9343 22.9125 28.1999 23.0594C28.1999 23.0594 28.0531 23.0594 27.9062 23.0594Z" fill="#CBAA5D"/>
</g>
<g id="Group_3">
<path id="Vector_4" d="M14.6876 11.75C14.1001 11.75 13.5126 11.3093 13.3657 10.7218C13.0719 9.98747 13.5126 9.10622 14.2469 8.95935C16.7438 8.0781 18.9469 6.46247 20.2688 4.11247L22.3251 0.734349C22.6188 -2.6246e-05 23.5001 -0.146901 24.2344 0.146849C24.9688 0.587474 25.1157 1.46872 24.8219 2.2031L22.7657 5.58122C21.0032 8.51872 18.3594 10.575 15.1282 11.6031C14.9813 11.75 14.8344 11.75 14.6876 11.75Z" fill="#CBAA5D"/>
</g>
</g>
</svg>
