<svg width="50" height="50" viewBox="0 0 50 50" fill="none" xmlns="http://www.w3.org/2000/svg">
<g id="parking-svgrepo-com (1) 1">
<path id="Vector" d="M39.5 27.9C36.3227 30.262 32.4203 31.441 28.4667 31.2333H19.3V46.6667H10V3.33335H29.0667C32.835 3.13169 36.5467 4.31735 39.5 6.66669C42.2737 9.38235 43.681 13.2004 43.3333 17.0667C43.757 21.0714 42.3483 25.053 39.5 27.9ZM32.5 12.3334C31.0847 11.2974 29.3507 10.79 27.6 10.9H19.3V23.6334H27.6C29.3717 23.742 31.12 23.183 32.5 22.0667C33.765 20.751 34.3977 18.9514 34.2333 17.1334C34.4133 15.3534 33.7757 13.5877 32.5 12.3334Z" fill="#CBAA5D"/>
</g>
</svg>
