<svg width="49" height="49" viewBox="0 0 49 49" fill="none" xmlns="http://www.w3.org/2000/svg">
<g id="Component 41" clip-path="url(#clip0_148_4958)">
<g id="Group">
<path id="Vector" d="M24.8823 44.1151C26.2699 45.5026 32.1067 41.9138 33.4942 40.527L39.1979 34.8225L34.1741 29.7996L28.4704 35.5032C27.0838 36.8899 23.4957 42.7276 24.8823 44.1151Z" fill="#CBAA5D"/>
<path id="Vector_2" d="M47.2057 21.7915C45.8182 20.4048 43.5694 20.4048 42.1828 21.7915L35.3228 28.6513L40.3466 33.6744L47.2057 26.8144C48.5925 25.4278 48.5925 23.179 47.2057 21.7915ZM38.2417 29.5609L37.3796 28.6997L42.182 23.8973L43.0425 24.7576L38.2417 29.5609Z" fill="#CBAA5D"/>
<path id="Vector_3" d="M35.8614 42.8934C34.5148 44.2385 29.3946 47.7751 25.8326 47.7751C25.8318 47.7751 25.8326 47.7751 25.8318 47.7751C24.1599 47.7751 23.1058 47.0715 22.5159 46.4815C18.2324 42.1964 26.019 33.2209 26.104 33.1368L26.4986 32.7421C26.1211 32.3254 25.9584 31.7518 25.9584 30.6077C25.9584 29.7621 25.9584 28.1907 25.9584 26.741C27.046 25.5334 27.4415 25.6837 28.3609 20.9418C30.2207 20.9418 30.1006 18.5255 30.9774 16.3821C31.6932 14.6367 31.0934 13.9291 30.492 13.6398C30.9839 7.27905 30.9839 2.89843 23.7644 1.53954C21.1471 -0.703553 17.1986 0.0580525 15.3274 0.432252C13.4578 0.806547 11.7712 0.432252 11.7712 0.432252L12.0923 3.44594C9.35413 6.73162 10.7236 11.1122 10.2825 13.6781C9.70881 13.9911 9.19077 14.7126 9.87389 16.3821C10.7515 18.5255 10.6305 20.9418 12.4903 20.9418C13.4104 25.6837 13.806 25.5333 14.8935 26.741C14.8935 28.1908 14.8935 29.7621 14.8935 30.6077C14.8935 33.0241 14.0724 33.0658 12.201 34.1116C7.68957 36.6334 1.81033 38.0985 0.757692 45.9798C0.564946 47.4212 8.84097 48.995 20.4264 49C32.0103 48.995 40.2871 47.4212 40.0951 45.9798C39.7919 43.7114 39.0761 42.0036 38.116 40.639L35.8614 42.8934Z" fill="#CBAA5D"/>
</g>
</g>
<defs>
<clipPath id="clip0_148_4958">
<rect width="49" height="49" fill="white"/>
</clipPath>
</defs>
</svg>
