<svg width="50" height="50" viewBox="0 0 50 50" fill="none" xmlns="http://www.w3.org/2000/svg">
<g id="Component 32">
<path id="Vector" d="M17.5 30H20V12.5H17.5C16.1195 12.5 15 13.6195 15 15V27.5C15 28.8805 16.1195 30 17.5 30ZM45 27.5V15C45 13.6195 43.8805 12.5 42.5 12.5H40V30H42.5C43.8805 30 45 28.8805 45 27.5ZM48.75 35H10V6.25C10 5.55937 9.44063 5 8.75 5H1.25C0.559375 5 0 5.55937 0 6.25V8.75C0 9.44063 0.559375 10 1.25 10H5V38.75C5 39.4406 5.55937 40 6.25 40H12.7297C12.5898 40.393 12.5 40.8094 12.5 41.25C12.5 43.3211 14.1789 45 16.25 45C18.3211 45 20 43.3211 20 41.25C20 40.8094 19.9102 40.393 19.7703 40H35.2297C35.0898 40.393 35 40.8094 35 41.25C35 43.3211 36.6789 45 38.75 45C40.8211 45 42.5 43.3211 42.5 41.25C42.5 40.8094 42.4102 40.393 42.2703 40H48.75C49.4406 40 50 39.4406 50 38.75V36.25C50 35.5594 49.4406 35 48.75 35ZM37.5 12.5V8.75C37.5 6.67891 35.8211 5 33.75 5H26.25C24.1789 5 22.5 6.67891 22.5 8.75V30H37.5V12.5ZM33.75 12.5H26.25V8.75H33.75V12.5Z" fill="#CBAA5D"/>
</g>
</svg>
