<svg width="55" height="55" viewBox="0 0 55 55" fill="none" xmlns="http://www.w3.org/2000/svg">
<g id="tv-monitor-svgrepo-com 1" clip-path="url(#clip0_148_4976)">
<g id="Group">
<g id="Group_2">
<path id="Vector" d="M55 7.13171H0V42.0812H55V7.13171ZM52.18 39.2612H2.81999V9.9519H52.18V39.2612Z" fill="#CBAA5D"/>
<path id="Vector_2" d="M44.9335 46.4582C44.9335 45.6797 44.3019 45.0481 43.5234 45.0481H11.3088C10.5295 45.0481 9.89868 45.6797 9.89868 46.4582C9.89868 47.2375 10.5295 47.8681 11.3088 47.8681H43.5236C44.3019 47.8681 44.9335 47.2375 44.9335 46.4582Z" fill="#CBAA5D"/>
<path id="Vector_3" d="M9.6297 18.333H13.5882C14.1072 18.333 14.5281 18.7545 14.5281 19.273V33.3787C14.5281 33.8983 14.9495 34.3186 15.4681 34.3186H17.6735C18.1922 34.3186 18.6135 33.8981 18.6135 33.3787V19.273C18.6135 18.7543 19.0344 18.333 19.5535 18.333H23.4856C24.0042 18.333 24.4256 17.9121 24.4256 17.393V15.8338C24.4256 15.3147 24.0041 14.8938 23.4856 14.8938H9.6297C9.11101 14.8938 8.6897 15.3147 8.6897 15.8338V17.393C8.6895 17.9121 9.11082 18.333 9.6297 18.333Z" fill="#CBAA5D"/>
<path id="Vector_4" d="M35.3828 33.4283C35.55 33.9204 36.1052 34.3187 36.6239 34.3187H38.5792C39.0989 34.3187 39.6551 33.9204 39.8229 33.4283L45.8386 15.7829C46.0066 15.2912 45.721 14.8937 45.2035 14.8937H42.8662C42.3465 14.8937 41.8087 15.2977 41.6656 15.7971L37.9294 28.7374C37.7862 29.2368 37.5539 29.2368 37.4117 28.7374L33.7113 15.7979C33.5681 15.2985 33.0311 14.8947 32.5132 14.8947H30.0567C29.537 14.8947 29.2507 15.293 29.4169 15.7847L35.3828 33.4283Z" fill="#CBAA5D"/>
</g>
</g>
</g>
<defs>
<clipPath id="clip0_148_4976">
<rect width="55" height="55" fill="white"/>
</clipPath>
</defs>
</svg>
