<svg width="50" height="50" viewBox="0 0 50 50" fill="none" xmlns="http://www.w3.org/2000/svg">
<g id="tv-monitor-svgrepo-com 1" clip-path="url(#clip0_150_1717)">
<g id="Group">
<g id="Group_2">
<path id="Vector" d="M50 6.4834H0V38.2556H50V6.4834ZM47.4364 35.692H2.56363V9.04721H47.4364V35.692Z" fill="#443939"/>
<path id="Vector_2" d="M40.8484 42.2348C40.8484 41.527 40.2742 40.9529 39.5665 40.9529H10.2804C9.57199 40.9529 8.99854 41.527 8.99854 42.2348C8.99854 42.9432 9.57199 43.5165 10.2804 43.5165H39.5667C40.2742 43.5165 40.8484 42.9432 40.8484 42.2348Z" fill="#443939"/>
<path id="Vector_3" d="M8.75445 16.6663H12.353C12.8249 16.6663 13.2076 17.0495 13.2076 17.5209V30.3442C13.2076 30.8166 13.5906 31.1987 14.0621 31.1987H16.067C16.5385 31.1987 16.9215 30.8165 16.9215 30.3442V17.5209C16.9215 17.0493 17.3042 16.6663 17.7761 16.6663H21.3507C21.8222 16.6663 22.2052 16.2837 22.2052 15.8118V14.3943C22.2052 13.9225 21.822 13.5398 21.3507 13.5398H8.75445C8.28292 13.5398 7.8999 13.9225 7.8999 14.3943V15.8118C7.89972 16.2837 8.28274 16.6663 8.75445 16.6663Z" fill="#443939"/>
<path id="Vector_4" d="M32.1662 30.3894C32.3182 30.8368 32.823 31.1989 33.2945 31.1989H35.0721C35.5445 31.1989 36.0502 30.8368 36.2027 30.3894L41.6715 14.3482C41.8242 13.9012 41.5646 13.5398 41.0941 13.5398H38.9693C38.4969 13.5398 38.008 13.9071 37.8778 14.3611L34.4813 26.125C34.3511 26.579 34.1399 26.579 34.0106 26.125L30.6467 14.3618C30.5165 13.9078 30.0283 13.5407 29.5575 13.5407H27.3243C26.8519 13.5407 26.5916 13.9028 26.7426 14.3498L32.1662 30.3894Z" fill="#443939"/>
</g>
</g>
</g>
<defs>
<clipPath id="clip0_150_1717">
<rect width="50" height="50" fill="white"/>
</clipPath>
</defs>
</svg>
