<svg width="47" height="47" viewBox="0 0 47 47" fill="none" xmlns="http://www.w3.org/2000/svg">
<g id="wi-fi-svgrepo-com (1) 1">
<path id="Vector" d="M4.0365 17.1306C9.4019 12.4011 16.3085 9.79167 23.4607 9.79167C30.6129 9.79167 37.5196 12.4011 42.885 17.1306C43.6964 17.8457 44.9338 17.7678 45.649 16.9564C46.3642 16.1451 46.2863 14.9076 45.4749 14.1924C39.3941 8.83238 31.5666 5.875 23.4607 5.875C15.3548 5.875 7.52738 8.83238 1.44661 14.1924C0.635265 14.9076 0.557306 16.1451 1.27249 16.9564C1.98767 17.7678 3.22516 17.8457 4.0365 17.1306Z" fill="#CBAA5D"/>
<path id="Vector_2" d="M11.0059 24.1181C14.5248 21.1873 18.9596 19.5822 23.5392 19.5822C28.1188 19.5822 32.5536 21.1873 36.0726 24.1181C36.9037 24.8104 38.1384 24.6978 38.8307 23.8669C39.5228 23.0357 39.4104 21.801 38.5792 21.1087C34.3567 17.5915 29.0349 15.6655 23.5392 15.6655C18.0437 15.6655 12.7219 17.5915 8.49925 21.1087C7.66819 21.801 7.55564 23.0357 8.24784 23.8669C8.94003 24.6978 10.1749 24.8104 11.0059 24.1181Z" fill="#CBAA5D"/>
<path id="Vector_3" d="M23.4706 29.3721C21.4382 29.3721 19.4562 30.0045 17.7995 31.1816C16.9178 31.8081 15.6952 31.6011 15.0688 30.7192C14.4424 29.8376 14.6494 28.615 15.5311 27.9887C17.8505 26.3408 20.6253 25.4554 23.4706 25.4554C26.3156 25.4554 29.0904 26.3408 31.4098 27.9887C32.2917 28.615 32.4985 29.8376 31.8722 30.7192C31.2457 31.6011 30.0231 31.8081 29.1415 31.1816C27.4847 30.0045 25.5027 29.3721 23.4706 29.3721Z" fill="#CBAA5D"/>
<path id="Vector_4" d="M23.4608 39.1614C24.5424 39.1614 25.4191 38.2847 25.4191 37.2031C25.4191 36.1215 24.5424 35.2448 23.4608 35.2448C22.3792 35.2448 21.5024 36.1215 21.5024 37.2031C21.5024 38.2847 22.3792 39.1614 23.4608 39.1614Z" fill="#CBAA5D"/>
</g>
</svg>
