<svg width="70" height="70" viewBox="0 0 70 70" fill="none" xmlns="http://www.w3.org/2000/svg">
<path d="M59.9375 29.0939C57.75 22.0939 52.5 16.4064 45.9375 13.3439C45.0625 10.2814 43.3125 7.65636 40.6875 5.46886C39.8125 4.81261 38.2812 4.81261 37.625 5.90636C36.9688 6.78136 36.9688 8.31261 38.0625 8.96886C42.4375 12.4689 43.75 18.5939 41.125 23.6251C38.9375 28.0001 33.4688 29.5314 29.0938 27.3439C25.8125 25.5939 24.5 21.6564 26.25 18.3751C26.9062 17.2814 27.7812 16.4064 29.0938 15.9689C30.4062 15.5314 31.7188 15.7501 32.8125 16.4064C33.6875 16.8439 34.3438 17.5001 34.5625 18.3751C34.7812 19.2501 34.7812 20.1251 34.3438 21.0001C33.6875 22.0939 34.125 23.4064 35.2188 24.0626C36.3125 24.7189 37.625 24.2814 38.2812 23.1876C39.1562 21.4376 39.375 19.2501 38.9375 17.2814C38.5 15.3126 36.9688 13.5626 35 12.6876C32.8125 11.5939 30.1875 11.3751 28 12.0314C27.125 12.2501 26.25 12.6876 25.5938 13.3439C18.375 16.1876 12.9062 22.0939 10.5 29.5314C6.78125 30.1876 4.375 33.4689 4.375 37.1876C4.375 40.9064 6.78125 44.1876 10.0625 45.5001C13.5625 56.0001 23.625 63.4376 35 63.4376C46.375 63.4376 56.4375 56.0001 59.9375 45.2814C63.2188 43.9689 65.625 40.6876 65.625 36.9689C65.625 33.4689 63.2188 30.1876 59.9375 29.0939ZM26.25 37.1876C26.25 35.8751 27.125 35.0001 28.4375 35.0001C29.75 35.0001 30.625 35.8751 30.625 37.1876V41.5626C30.625 42.8751 29.75 43.7501 28.4375 43.7501C27.125 43.7501 26.25 42.8751 26.25 41.5626V37.1876ZM30.625 52.5001C26.9062 52.5001 23.625 50.0939 22.3125 46.5939C21.875 45.5001 22.5312 44.1876 23.625 43.7501C24.7188 43.3126 26.0312 43.9689 26.4688 45.0626C27.125 46.8126 28.6562 47.9064 30.625 47.9064C31.9375 47.9064 32.8125 48.7814 32.8125 50.0939C32.8125 51.4064 31.9375 52.5001 30.625 52.5001ZM43.75 41.5626C43.75 42.8751 42.875 43.7501 41.5625 43.7501C40.25 43.7501 39.375 42.8751 39.375 41.5626V37.1876C39.375 35.8751 40.25 35.0001 41.5625 35.0001C42.875 35.0001 43.75 35.8751 43.75 37.1876V41.5626Z" fill="#CBAA5D"/>
</svg>
