<svg width="70" height="70" viewBox="0 0 70 70" fill="none" xmlns="http://www.w3.org/2000/svg">
<path d="M55.4166 58.3332H14.5833V61.2498C14.5833 62.8607 13.2775 64.1665 11.6666 64.1665H8.74998C7.13916 64.1665 5.83331 62.8607 5.83331 61.2498V34.9998L13.1639 15.4516C14.0177 13.1749 16.1942 11.6665 18.6258 11.6665H51.3741C53.8058 11.6665 55.9822 13.1749 56.8362 15.4516L64.1666 34.9998V61.2498C64.1666 62.8607 62.8609 64.1665 61.25 64.1665H58.3333C56.7224 64.1665 55.4166 62.8607 55.4166 61.2498V58.3332ZM12.0633 34.9998H57.9366L51.3741 17.4998H18.6258L12.0633 34.9998ZM18.9583 49.5832C21.3746 49.5832 23.3333 47.6243 23.3333 45.2082C23.3333 42.792 21.3746 40.8332 18.9583 40.8332C16.5421 40.8332 14.5833 42.792 14.5833 45.2082C14.5833 47.6243 16.5421 49.5832 18.9583 49.5832ZM51.0416 49.5832C53.4578 49.5832 55.4166 47.6243 55.4166 45.2082C55.4166 42.792 53.4578 40.8332 51.0416 40.8332C48.6255 40.8332 46.6666 42.792 46.6666 45.2082C46.6666 47.6243 48.6255 49.5832 51.0416 49.5832Z" fill="#CBAA5D"/>
</svg>
