<svg width="70" height="70" viewBox="0 0 70 70" fill="none" xmlns="http://www.w3.org/2000/svg">
<path d="M70 57.9563H0V63.432H70V57.9563Z" fill="#CBAA5D"/>
<path d="M43.797 20.7119C43.797 20.7119 49.2384 21.8007 56.3098 14.7283C59.5737 19.0811 61.7491 21.2563 61.7491 21.2563V27.7866C63.9351 25.5343 65.2859 22.4671 65.2859 19.0811C65.2859 12.1701 59.6829 6.56836 52.7742 6.56836C45.8633 6.56836 40.2615 12.1701 40.2615 19.0811C40.2615 22.4671 41.6132 25.5343 43.7972 27.7866V20.7119H43.797Z" fill="#CBAA5D"/>
<path d="M61.1652 35.1477C60.5802 35.4674 57.0574 42.8789 54.7654 47.8016L54.158 39.2266H51.3891L50.7817 47.8049C48.4897 42.8811 44.9669 35.4674 44.382 35.1477C35.9246 38.1989 35.5471 45.0338 35.5471 55.766H70C70 45.0338 69.6225 38.1989 61.1652 35.1477Z" fill="#CBAA5D"/>
<path d="M54.7515 37.569L55.1013 34.4109H50.447L50.7955 37.569H54.7515Z" fill="#CBAA5D"/>
<path d="M13.6893 43.3474C8.79105 43.3474 4.82019 47.3173 4.82019 52.2165H22.5584C22.5584 47.3173 18.5875 43.3474 13.6893 43.3474Z" fill="#CBAA5D"/>
<path d="M15.5629 39.8501H11.8156V42.3484H15.5629V39.8501Z" fill="#CBAA5D"/>
<path d="M5.07034 55.8387H22.3081C23.0675 55.8387 23.6824 55.2226 23.6824 54.4644C23.6824 53.7061 23.0675 53.0901 22.3081 53.0901H5.07034C4.31101 53.0901 3.69604 53.7061 3.69604 54.4644C3.69604 55.2228 4.31101 55.8387 5.07034 55.8387Z" fill="#CBAA5D"/>
</svg>
