<svg width="70" height="70" viewBox="0 0 70 70" fill="none" xmlns="http://www.w3.org/2000/svg">
<path d="M64.7468 37.3334H55.4134C54.7682 37.3334 54.2468 37.8548 54.2468 38.5V47.8334H44.9134V38.5C44.9134 37.8548 44.3919 37.3334 43.7468 37.3334H43.238L45.9295 31.9504C49.3757 25.0566 49.0154 17.0275 44.9634 10.4709C40.9115 3.91426 33.8919 0 26.1837 0C18.4768 0 11.4557 3.91303 7.405 10.4709C3.35197 17.0264 2.99035 25.0566 6.43785 31.9504L25.1407 69.3548C25.3391 69.7504 25.7416 70 26.1837 70C26.6259 70 27.0296 69.7504 27.2279 69.3548L33.2466 57.3172V68.8332C33.2466 69.4784 33.7681 69.9999 34.4132 69.9999H43.7466C44.3918 69.9999 44.9132 69.4784 44.9132 68.8332V59.5H54.2466V68.8334C54.2466 69.4786 54.7681 70 55.4132 70H64.7466C65.3918 70 65.9132 69.4786 65.9132 68.8334V38.5C65.9134 37.8548 65.3919 37.3334 64.7468 37.3334ZM26.1837 35C19.1079 35 13.3504 29.2425 13.3504 22.1666C13.3504 15.0907 19.1079 9.33324 26.1837 9.33324C33.2607 9.33324 39.0171 15.0907 39.0171 22.1666C39.0171 29.2425 33.2607 35 26.1837 35ZM63.58 67.6666H56.58V58.3332C56.58 57.6881 56.0586 57.1666 55.4134 57.1666H43.7468C43.1016 57.1666 42.5801 57.6881 42.5801 58.3332V67.6666H35.5801V52.3752V39.6666H41.3505H42.5801V49C42.5801 49.6452 43.1016 50.1666 43.7468 50.1666H55.4134C56.0586 50.1666 56.58 49.6452 56.58 49V39.6666H63.58V67.6666Z" fill="#CBAA5D"/>
<path d="M26.184 11.6665C20.3938 11.6665 15.684 16.3763 15.684 22.1665C15.684 27.9567 20.3938 32.6665 26.184 32.6665C31.9741 32.6665 36.684 27.9567 36.684 22.1665C36.684 16.3763 31.9741 11.6665 26.184 11.6665ZM26.184 16.3333C22.9675 16.3333 20.3506 18.9501 20.3506 22.1666C20.3506 22.8118 19.8291 23.3333 19.184 23.3333C18.5388 23.3333 18.0173 22.8118 18.0173 22.1666C18.0173 17.6645 21.6818 14 26.184 14C26.8291 14 27.3506 14.5215 27.3506 15.1666C27.3506 15.8118 26.8291 16.3333 26.184 16.3333Z" fill="#CBAA5D"/>
</svg>
