<svg width="70" height="70" viewBox="0 0 70 70" fill="none" xmlns="http://www.w3.org/2000/svg">
<path d="M55.3 39.06C50.8517 42.3668 45.3885 44.0174 39.8533 43.7266H27.02V65.3333H14V4.66664H40.6933C45.969 4.38431 51.1653 6.04424 55.3 9.33331C59.1831 13.1352 61.1534 18.4804 60.6667 23.8933C61.2598 29.4998 59.2877 35.0742 55.3 39.06ZM45.5 17.2666C43.5185 15.8162 41.0909 15.106 38.64 15.26H27.02V33.0866H38.64C41.1203 33.2388 43.568 32.4562 45.5 30.8933C47.271 29.0514 48.1567 26.5318 47.9267 23.9866C48.1787 21.4946 47.2859 19.0227 45.5 17.2666Z" fill="#CBAA5D"/>
</svg>
