<svg width="24" height="24" viewBox="0 0 24 24" fill="none" xmlns="http://www.w3.org/2000/svg">
<path d="M8.70695 10.3526C9.8775 12.411 11.589 14.1225 13.6474 15.293L14.753 13.7451C15.1206 13.2306 15.8145 13.0716 16.3695 13.3748C18.128 14.3354 20.0714 14.9191 22.0986 15.0796C22.7488 15.1311 23.25 15.6736 23.25 16.3258V21.9043C23.25 22.5451 22.7653 23.0821 22.1278 23.1476C21.4654 23.2158 20.7971 23.25 20.125 23.25C9.42449 23.25 0.75 14.5755 0.75 3.875C0.75 3.20284 0.784275 2.53464 0.852363 1.8722C0.917875 1.23469 1.45493 0.75 2.09581 0.75H7.67428C8.32638 0.75 8.86891 1.2513 8.92038 1.90136C9.08084 3.9286 9.66463 5.87205 10.6253 7.63055C10.9284 8.1855 10.7694 8.87943 10.2549 9.24696L8.70695 10.3526ZM5.55531 9.5315L7.93025 7.83511C7.25684 6.38143 6.79535 4.83979 6.55909 3.25H3.26134C3.25379 3.4579 3.25 3.66625 3.25 3.875C3.25 13.1948 10.8053 20.75 20.125 20.75C20.3338 20.75 20.5421 20.7463 20.75 20.7386V17.4409C19.1603 17.2046 17.6186 16.7431 16.1649 16.0698L14.4685 18.4448C13.7823 18.1781 13.1195 17.8644 12.4843 17.5076L12.4116 17.4663C9.96213 16.0734 7.92668 14.0379 6.53375 11.5884L6.49243 11.5158C6.13561 10.8805 5.82193 10.2178 5.55531 9.5315Z" fill="white"/>
</svg>
