<svg width="70" height="70" viewBox="0 0 70 70" fill="none" xmlns="http://www.w3.org/2000/svg">
<g clip-path="url(#clip0_174_2594)">
<path d="M58.7649 55.9728C57.1597 53.5697 54.7216 52.2411 52.4318 51.3766C51.282 50.945 50.159 50.6257 49.1698 50.3547C48.1817 50.0861 47.323 49.8601 46.7465 49.642C45.7369 49.2677 44.6703 48.7822 43.9262 48.2595C43.5541 47.9999 43.2686 47.7323 43.1022 47.5053C42.9348 47.2726 42.8887 47.1118 42.8865 46.9712C42.8865 46.0001 42.8865 44.7873 42.8865 43.1888C44.1781 41.7521 46.0339 39.5255 46.796 35.9949C47.0624 35.8746 47.3255 35.7386 47.5795 35.562C48.2111 35.1259 48.7474 34.493 49.2015 33.6321C49.659 32.7677 50.0637 31.6627 50.4953 30.1509C50.7145 29.3843 50.8156 28.7189 50.8156 28.1254C50.8167 27.4419 50.6751 26.8495 50.4176 26.3685C50.0783 25.729 49.5577 25.349 49.0913 25.1378L50.1445 23.5685V21.8285C50.2446 21.6925 50.3085 21.5677 50.2928 21.4688V17.6999L52.9725 12.3427C53.6515 10.9848 53.1266 9.33242 51.7877 8.61533L36.3252 0.332227C35.4981 -0.110742 34.5032 -0.110742 33.6759 0.332227L18.2123 8.61533C16.8747 9.33242 16.3497 10.9848 17.0287 12.3427L19.7084 17.7033V21.4689C19.6916 21.5712 19.7478 21.6959 19.8568 21.8375V23.5687L20.91 25.1355C20.8009 25.1839 20.6886 25.239 20.5728 25.3098C20.2085 25.5346 19.841 25.8865 19.5836 26.3687C19.3262 26.8498 19.1845 27.4421 19.1858 28.1255C19.1858 28.719 19.2869 29.3844 19.5061 30.151C20.0839 32.1643 20.6054 33.4648 21.281 34.4191C21.6193 34.8923 22.0038 35.2722 22.4219 35.5622C22.6759 35.7386 22.9391 35.8747 23.2054 35.995C23.9675 39.5257 25.8233 41.7524 27.1149 43.1889C27.1149 44.7874 27.1149 46.0001 27.1149 46.9714C27.1149 47.0906 27.0665 47.2626 26.8822 47.5087C26.6103 47.874 26.0471 48.317 25.3783 48.6922C24.7116 49.0711 23.9451 49.4004 23.2741 49.6366C22.486 49.9164 21.2159 50.2064 19.7939 50.6145C17.6571 51.2328 15.1303 52.1229 13.0743 53.8855C12.0481 54.7668 11.1476 55.8739 10.5137 57.2497C9.87985 58.6246 9.5155 60.2589 9.51673 62.1697C9.51673 62.6138 9.53587 63.0723 9.57524 63.5467C9.60559 63.8795 9.73138 64.1493 9.88095 64.3717C10.1631 64.7876 10.5386 65.0956 11.0083 65.4138C11.8312 65.9578 12.9722 66.4906 14.4322 67.0132C18.8014 68.5713 26.037 69.9977 35.0014 70C42.2841 70 48.4315 69.0547 52.8198 67.8665C55.0151 67.2719 56.7675 66.6199 58.0344 65.9691C58.6696 65.642 59.182 65.3172 59.5889 64.9631C59.7923 64.7832 59.971 64.5956 60.1206 64.3718C60.2701 64.1494 60.3961 63.8796 60.4252 63.5469C60.4646 63.0737 60.4837 62.615 60.4837 62.1734C60.487 59.625 59.8326 57.5713 58.7649 55.9728ZM31.71 18.8048C31.71 16.9873 33.1825 15.5147 35.0012 15.5147C36.8177 15.5147 38.2901 16.9872 38.2901 18.8048V19.1207C38.2901 20.9372 36.8177 22.4108 35.0012 22.4108C33.1825 22.4108 31.71 20.9372 31.71 19.1207V18.8048ZM32.3293 62.978L24.8363 51.1495C25.5187 50.864 26.2177 50.5032 26.8652 50.0862L31.1536 56.2528L33.2218 52.3625L32.3293 62.978ZM31.0512 54.5285L27.5959 49.5612C27.9117 49.3027 28.2118 49.0284 28.458 48.7059C28.8053 48.2506 29.0694 47.6819 29.0864 47.0355L33.9243 49.124L31.0512 54.5285ZM29.0931 46.0588C29.0931 45.1753 29.0931 44.1253 29.0931 42.8102V42.4315L28.839 42.1482C27.4891 40.6453 25.6625 38.6501 25.0286 35.105L24.9285 34.5384L24.3878 34.3451C24.0427 34.2226 23.7809 34.0967 23.5516 33.9371C23.2132 33.6988 22.9063 33.3729 22.5478 32.7052C22.1937 32.0407 21.8194 31.0483 21.4092 29.6085C21.2282 28.979 21.1642 28.49 21.1642 28.1258C21.1653 27.7043 21.2462 27.458 21.3283 27.3019C21.4531 27.0759 21.6061 26.9793 21.8005 26.9005C21.8883 26.8669 21.9769 26.8488 22.0523 26.8365L24.0857 29.8658L24.9557 24.7682L25.0513 24.4489C27.7063 25.2909 31.1549 25.9664 35.0015 25.9664C38.8378 25.9664 42.2976 25.2965 44.9538 24.4569L45.046 24.7682L45.916 29.8658L47.9495 26.8387C48.0776 26.8589 48.2496 26.9016 48.3823 26.9894C48.4958 27.0625 48.5879 27.1467 48.6723 27.3019C48.7543 27.458 48.8353 27.7043 48.8376 28.1258C48.8376 28.49 48.7724 28.9789 48.5926 29.6085C48.0474 31.5306 47.5584 32.6479 47.1088 33.2685C46.884 33.582 46.6782 33.7776 46.4501 33.9373C46.2208 34.097 45.959 34.2229 45.6139 34.3453L45.0721 34.5386L44.9731 35.1051C44.3393 38.6503 42.5124 40.6455 41.1626 42.1483L40.9086 42.4316V42.8103C40.9086 44.1256 40.9086 45.1754 40.9086 46.0589L35.0018 48.6094L29.0931 46.0588ZM40.9147 47.0355C40.9294 47.6606 41.1722 48.2259 41.5084 48.6778C41.7601 49.0172 42.0625 49.3116 42.3929 49.578L38.9489 54.5284L36.0769 49.1239L40.9147 47.0355ZM37.6719 62.9802L36.7794 52.3636L38.8466 56.2528L43.127 50.0974C43.2697 50.1886 43.4126 50.2785 43.562 50.3639C44.08 50.6584 44.6276 50.908 45.175 51.1383L37.6719 62.9802Z" fill="#CBAA5D"/>
</g>
<defs>
<clipPath id="clip0_174_2594">
<rect width="70" height="70" fill="white"/>
</clipPath>
</defs>
</svg>
