<svg width="66" height="48" viewBox="0 0 66 48" fill="none" xmlns="http://www.w3.org/2000/svg">
<g id="park (1) 1">
<path id="Vector" d="M9.00244 40.6875H46.3774" stroke="#8F583A" stroke-width="3" stroke-miterlimit="10" stroke-linecap="round" stroke-linejoin="round"/>
<path id="Vector_2" d="M15.7614 7.625L9.14605 20.3268C8.89161 20.8141 8.99942 21.4121 9.40767 21.7801L11.712 23.8601L9.25242 27.9671C8.55092 29.1372 9.39474 30.625 10.7589 30.625H22.3955C23.0999 30.625 23.58 29.9149 23.3198 29.2608L21.1635 23.8601L22.7592 22.2616C23.4506 21.5687 23.5785 20.4935 23.0567 19.6655C20.968 16.3535 16.5362 11.6026 15.7614 7.625Z" stroke="#8F583A" stroke-width="3" stroke-miterlimit="10" stroke-linecap="round" stroke-linejoin="round"/>
<path id="Vector_3" d="M16.1899 22V40.6875" stroke="#8F583A" stroke-width="3" stroke-miterlimit="10" stroke-linecap="round" stroke-linejoin="round"/>
<path id="Vector_4" d="M29.1274 34.9375V29.1875H42.0649V34.9375" stroke="#8F583A" stroke-width="3" stroke-miterlimit="10" stroke-linecap="round" stroke-linejoin="round"/>
<g id="Vector_5">
<path d="M43.5024 40.6875V34.9375H27.6899V40.6875" fill="#8F583A"/>
<path d="M43.5024 40.6875V34.9375H27.6899V40.6875" stroke="#8F583A" stroke-width="3" stroke-miterlimit="10" stroke-linecap="round" stroke-linejoin="round"/>
</g>
<path id="Vector_6" d="M47.8148 9.99112C45.6097 12.4866 41.7744 12.5916 39.437 10.2542C37.0997 7.91538 37.2032 4.08013 39.6987 1.875" stroke="#8F583A" stroke-width="3" stroke-miterlimit="10" stroke-linecap="round" stroke-linejoin="round"/>
<path id="Vector_7" d="M35.3703 14.3193L34.354 15.3356" stroke="#8F583A" stroke-width="3" stroke-miterlimit="10" stroke-linecap="round" stroke-linejoin="round"/>
<path id="Vector_8" d="M30.5649 6.1875C31.1263 6.1875 32.0024 6.1875 32.0024 6.1875" stroke="#8F583A" stroke-width="3" stroke-miterlimit="10" stroke-linecap="round" stroke-linejoin="round"/>
<path id="Vector_9" d="M43.5024 17.6875V19.125" stroke="#8F583A" stroke-width="3" stroke-miterlimit="10" stroke-linecap="round" stroke-linejoin="round"/>
</g>
</svg>
