<svg width="57" height="52" viewBox="0 0 57 52" fill="none" xmlns="http://www.w3.org/2000/svg">
<g id="Frame">
<path id="Vector" d="M44.7656 42.9475H12.0034V45.0659C12.0034 46.2359 10.9557 47.1843 9.66323 47.1843H7.32307C6.03065 47.1843 4.98291 46.2359 4.98291 45.0659V26.0001L10.8645 11.8019C11.5496 10.1483 13.2959 9.05273 15.2468 9.05273H41.5221C43.4731 9.05273 45.2194 10.1483 45.9046 11.8019L51.7861 26.0001V45.0659C51.7861 46.2359 50.7384 47.1843 49.4459 47.1843H47.1058C45.8133 47.1843 44.7656 46.2359 44.7656 45.0659V42.9475ZM9.98149 26.0001H46.7875L41.5221 13.2896H15.2468L9.98149 26.0001ZM15.5136 36.5922C17.4523 36.5922 19.0239 35.1695 19.0239 33.4146C19.0239 31.6597 17.4523 30.2369 15.5136 30.2369C13.575 30.2369 12.0034 31.6597 12.0034 33.4146C12.0034 35.1695 13.575 36.5922 15.5136 36.5922ZM41.2554 36.5922C43.194 36.5922 44.7656 35.1695 44.7656 33.4146C44.7656 31.6597 43.194 30.2369 41.2554 30.2369C39.3168 30.2369 37.7451 31.6597 37.7451 33.4146C37.7451 35.1695 39.3168 36.5922 41.2554 36.5922Z" fill="#8F583A"/>
</g>
</svg>
