<svg width="47" height="46" viewBox="0 0 47 46" fill="none" xmlns="http://www.w3.org/2000/svg">
<g id="drink (1) 1">
<path id="Vector" d="M41.5168 14.0844C41.5911 13.9681 41.6301 13.8332 41.6294 13.6957C41.6286 13.5581 41.588 13.4237 41.5124 13.3082C41.4356 13.1936 41.3276 13.1028 41.2008 13.0461C41.074 12.9894 40.9336 12.9691 40.7957 12.9876L23.4963 15.4673C23.4735 15.4762 23.4511 15.4862 23.4293 15.4975L6.56987 12.9258C6.43228 12.9063 6.29189 12.9254 6.16485 12.9811C6.03781 13.0368 5.92928 13.1268 5.85173 13.2406C5.77499 13.3552 5.7331 13.489 5.73104 13.6263C5.72897 13.7636 5.76681 13.8987 5.84008 14.0154L12.7796 25.0511L11.1525 35.4442L7.55312 34.8937C7.36258 34.8667 7.16891 34.9145 7.01368 35.0269C6.85846 35.1392 6.75403 35.3071 6.72282 35.4945C6.69351 35.6827 6.741 35.8746 6.85487 36.0282C6.96874 36.1818 7.1397 36.2845 7.33025 36.3139L15.9683 37.6335C16.0049 37.6391 16.0419 37.642 16.079 37.6422C16.2638 37.6439 16.4424 37.5761 16.5785 37.4527C16.7146 37.3293 16.7981 37.1594 16.812 36.9775C16.8259 36.7956 16.7692 36.6153 16.6533 36.4731C16.5375 36.3309 16.3713 36.2375 16.1882 36.2119L12.5903 35.6627L14.2188 25.2696L23.7163 17.234L33.0346 25.2639L34.5655 35.6699L30.9618 36.186C30.7793 36.2116 30.6135 36.3046 30.4977 36.4462C30.382 36.5877 30.3249 36.7673 30.338 36.9487C30.3511 37.1301 30.4335 37.2999 30.5684 37.4238C30.7033 37.5477 30.8809 37.6165 31.0652 37.6163C31.1012 37.616 31.1372 37.6136 31.173 37.6091L39.8227 36.37C40.0139 36.3419 40.186 36.2402 40.3015 36.0872C40.417 35.9342 40.4663 35.7423 40.4388 35.5535C40.4072 35.3667 40.3036 35.1992 40.1496 35.0861C39.9957 34.973 39.8033 34.9231 39.6129 34.9469L36.0091 35.4629L34.4767 25.0583L41.5168 14.0844ZM29.4934 20.3016C29.9521 20.1206 30.3684 19.8491 30.717 19.5038C31.4063 19.8844 32.2036 20.0299 32.9852 19.9179C33.7669 19.8059 34.4893 19.4426 35.0404 18.8842C35.4741 19.1174 35.9514 19.2607 36.4432 19.3054L33.5561 23.8048L29.4934 20.3016ZM13.7105 23.8062L10.8656 19.281C11.3573 19.241 11.8356 19.1026 12.2713 18.8742C12.8173 19.4378 13.5366 19.8078 14.3175 19.9268C15.0984 20.0459 15.8973 19.9073 16.5903 19.5325C16.9357 19.8812 17.3496 20.1566 17.8066 20.3419L13.7105 23.8062ZM19.1671 19.189C19.0637 19.1877 18.9606 19.1795 18.8583 19.1645C18.551 19.1172 18.2577 19.0047 17.9986 18.8347C17.7396 18.6647 17.521 18.4413 17.3579 18.1799C17.3023 18.0933 17.2286 18.0195 17.1417 17.9633C17.0548 17.9072 16.9567 17.8701 16.8541 17.8544C16.7514 17.8388 16.6466 17.845 16.5466 17.8726C16.4466 17.9002 16.3537 17.9486 16.2742 18.0145C16.0387 18.2152 15.7618 18.3631 15.4627 18.4478C15.1636 18.5325 14.8494 18.5521 14.5419 18.5052C14.2343 18.4583 13.9408 18.3461 13.6816 18.1762C13.4223 18.0064 13.2035 17.783 13.0404 17.5215C12.9846 17.4347 12.9107 17.3606 12.8236 17.3043C12.7364 17.248 12.638 17.2108 12.5351 17.1952C12.4322 17.1795 12.327 17.1858 12.2267 17.2135C12.1265 17.2413 12.0334 17.2899 11.9537 17.3562C11.7162 17.5545 11.4388 17.7008 11.1397 17.7853C10.8406 17.8698 10.5267 17.8906 10.2188 17.8464C10.1138 17.8256 10.0105 17.7968 9.91001 17.7601L7.91292 14.5847L22.0571 16.7424L19.1671 19.189ZM39.4381 14.6364L37.4017 17.8104C37.3029 17.8392 37.2021 17.8608 37.1001 17.8751C36.7917 17.9202 36.4769 17.8981 36.178 17.8104C35.879 17.7228 35.6031 17.5717 35.3696 17.3677C35.2899 17.3024 35.1974 17.2541 35.0979 17.2256C34.9984 17.1972 34.8941 17.1893 34.7913 17.2024C34.6886 17.2172 34.5903 17.2535 34.5029 17.3088C34.4155 17.364 34.341 17.437 34.2844 17.5229C34.1178 17.782 33.8966 18.0027 33.636 18.1701C33.3754 18.3375 33.0814 18.4477 32.7738 18.4932C32.466 18.5379 32.1521 18.5158 31.8537 18.4287C31.5554 18.3416 31.2799 18.1914 31.0462 17.9887C30.9667 17.9225 30.8741 17.8735 30.7742 17.8448C30.6744 17.8161 30.5696 17.8083 30.4665 17.8219C30.3639 17.8371 30.2658 17.8737 30.1786 17.9292C30.0915 17.9848 30.0173 18.0579 29.961 18.1439C29.7764 18.4583 29.5072 18.7162 29.1833 18.8889C28.8593 19.0617 28.4933 19.1427 28.1256 19.1229L25.2735 16.6647L39.4381 14.6364ZM23.5983 11.2324C23.6939 11.2324 23.7887 11.2138 23.877 11.1777C23.9654 11.1416 24.0457 11.0886 24.1133 11.0219C24.1809 10.9552 24.2346 10.8759 24.2712 10.7887C24.3078 10.7015 24.3266 10.6081 24.3266 10.5137V9.07617C24.3266 8.88555 24.2499 8.70273 24.1133 8.56794C23.9767 8.43315 23.7915 8.35742 23.5983 8.35742C23.4051 8.35742 23.2199 8.43315 23.0833 8.56794C22.9467 8.70273 22.87 8.88555 22.87 9.07617V10.5137C22.87 10.7043 22.9467 10.8871 23.0833 11.0219C23.2199 11.1567 23.4051 11.2324 23.5983 11.2324ZM27.2283 12.6699C27.3238 12.6701 27.4184 12.6516 27.5066 12.6156C27.5949 12.5796 27.675 12.5267 27.7425 12.46L28.7724 11.4437C28.9051 11.3082 28.9785 11.1266 28.9768 10.9382C28.9751 10.7497 28.8986 10.5694 28.7635 10.4362C28.6285 10.3029 28.4458 10.2273 28.2548 10.2257C28.0639 10.224 27.8799 10.2965 27.7425 10.4274L26.7127 11.4437C26.611 11.5443 26.5419 11.6724 26.514 11.8117C26.486 11.9511 26.5006 12.0955 26.5558 12.2267C26.6109 12.3579 26.7043 12.47 26.824 12.5489C26.9437 12.6278 27.0844 12.6699 27.2283 12.6699ZM19.004 12.46C19.1424 12.5856 19.3245 12.6534 19.5124 12.6494C19.7003 12.6455 19.8794 12.57 20.0122 12.4387C20.145 12.3075 20.2213 12.1307 20.225 11.9452C20.2288 11.7598 20.1598 11.5801 20.0324 11.4437L19.0025 10.4274C18.8652 10.2965 18.6812 10.224 18.4902 10.2257C18.2992 10.2273 18.1166 10.3029 17.9815 10.4362C17.8465 10.5694 17.7699 10.7497 17.7682 10.9382C17.7666 11.1266 17.84 11.3082 17.9727 11.4437L19.004 12.46Z" fill="#8F583A"/>
</g>
</svg>
