<svg width="13" height="13" viewBox="0 0 13 13" fill="none" xmlns="http://www.w3.org/2000/svg">
<g id="Group">
<path id="Vector" fill-rule="evenodd" clip-rule="evenodd" d="M9.45243 4.96333L8.06218 5.29386C7.76064 4.50249 7.25702 4.10415 6.55026 4.10415C6.00855 4.10415 5.58216 4.31285 5.27533 4.73344C4.96533 5.15084 4.81191 5.71127 4.81191 6.4073C4.81191 6.95502 4.8754 7.4201 5.00553 7.79724C5.13567 8.17439 5.32717 8.45514 5.57899 8.64689C5.8308 8.83547 6.13233 8.93081 6.48254 8.93081C7.26231 8.93081 7.7945 8.44348 8.07911 7.46883L9.45243 7.93603C9.00065 9.40966 7.9987 10.147 6.44869 10.147C5.89534 10.147 5.3769 10.0103 4.89867 9.73808C4.42044 9.46793 4.0385 9.0537 3.7486 8.49963C3.46187 7.94238 3.31692 7.28131 3.31692 6.51006C3.31692 5.79073 3.45023 5.16144 3.71686 4.61902C3.9803 4.07978 4.36331 3.6592 4.85847 3.35726C5.35363 3.05851 5.93343 2.90808 6.6021 2.90808C8.00399 2.90596 8.9541 3.59139 9.45243 4.96333ZM6.50053 0C7.38716 0 8.22723 0.165268 9.01758 0.495803C9.80581 0.829517 10.5009 1.29672 11.103 1.89952C11.706 2.50232 12.1716 3.19941 12.5048 3.98761C12.8349 4.77899 13 5.61804 13 6.50795C13 7.67435 12.7069 8.75919 12.1218 9.75715C11.5367 10.7583 10.7453 11.5497 9.74974 12.1302C8.75307 12.7108 7.66965 13 6.49947 13C5.3113 13 4.21942 12.7097 3.2291 12.1323C2.23561 11.555 1.44738 10.7657 0.868642 9.76562C0.2899 8.76872 0 7.68071 0 6.509C0 5.33094 0.2899 4.24081 0.868642 3.24285C1.44844 2.24171 2.23879 1.45033 3.23863 0.869774C4.23529 0.290278 5.324 0 6.50053 0ZM6.50053 1.27659C5.54407 1.27659 4.66697 1.51178 3.87344 1.98109C3.07992 2.45147 2.44828 3.08606 1.98169 3.88697C1.5151 4.69 1.28021 5.56401 1.28021 6.509C1.28021 7.46035 1.5151 8.33331 1.98169 9.12786C2.44828 9.9256 3.07992 10.5549 3.87662 11.0221C4.67649 11.4893 5.5483 11.7245 6.50159 11.7245C7.44641 11.7245 8.31822 11.4925 9.12338 11.0284C9.92537 10.5644 10.5602 9.93513 11.0268 9.1374C11.4934 8.34284 11.7282 7.46671 11.7282 6.509C11.7282 5.56931 11.4934 4.69636 11.0247 3.89227C10.5549 3.08923 9.92114 2.45041 9.11809 1.98109C8.31716 1.51178 7.44535 1.27659 6.50053 1.27659Z" fill="#848484"/>
</g>
</svg>
