<svg width="29" height="29" viewBox="0 0 29 29" fill="none" xmlns="http://www.w3.org/2000/svg">
<g id="Frame 22">
<g id="Group 30">
<path id="Star 1" d="M13.5902 2.84311L14.1979 1.80011L14.8056 2.84311C15.2011 3.52181 16.1288 3.6487 16.692 3.10112L17.5485 2.2684L17.8619 3.45449C18.0619 4.21117 18.9174 4.58102 19.6056 4.20826L20.6543 3.64024L20.6426 4.888C20.6353 5.66576 21.354 6.24773 22.1132 6.07884L23.2864 5.81786L22.9406 7.03362C22.7292 7.77645 23.2594 8.52415 24.0304 8.57043L25.2478 8.64351L24.5874 9.729C24.1883 10.3849 24.4943 11.2419 25.2185 11.4968L26.3889 11.9088L25.4647 12.7735C24.9056 13.2966 24.9678 14.2011 25.5931 14.6428L26.6216 15.3692L25.5106 15.9435C24.8298 16.2953 24.6443 17.184 25.1275 17.7788L25.9279 18.7642L24.7222 19.0078C23.9676 19.1602 23.546 19.97 23.854 20.6756L24.3616 21.8383L23.1555 21.7422C22.3829 21.6806 21.7529 22.352 21.8635 23.1191L22.0428 24.3631L20.9227 23.9442C20.1917 23.6708 19.3972 24.1516 19.3004 24.926L19.1468 26.154L18.1866 25.4476C17.5547 24.9827 16.6543 25.2338 16.3542 25.9585L15.8887 27.0823L15.1502 26.1369C14.6664 25.5176 13.7295 25.5176 13.2457 26.1369L12.5072 27.0823L12.0417 25.9585C11.7415 25.2338 10.8411 24.9827 10.2093 25.4476L9.249 26.154L9.09546 24.926C8.99863 24.1516 8.20411 23.6708 7.47316 23.9442L6.35301 24.3631L6.53234 23.1191C6.64292 22.352 6.01295 21.6806 5.24037 21.7422L4.03425 21.8383L4.5418 20.6756C4.84978 19.97 4.42826 19.1602 3.67367 19.0078L2.4679 18.7642L3.26836 17.7788C3.75156 17.184 3.56607 16.2953 2.88527 15.9435L1.7742 15.3692L2.8027 14.6428C3.42805 14.2011 3.49019 13.2966 2.93114 12.7735L2.00695 11.9088L3.17732 11.4968C3.90158 11.2419 4.20751 10.3849 3.80845 9.729L3.14807 8.64351L4.36548 8.57043C5.1364 8.52415 5.66661 7.77645 5.45528 7.03362L5.10941 5.81786L6.28259 6.07884C7.04182 6.24773 7.76055 5.66576 7.75325 4.888L7.74154 3.64024L8.7902 4.20826C9.47839 4.58102 10.334 4.21117 10.5339 3.45449L10.8474 2.2684L11.7038 3.10112C12.267 3.6487 13.1947 3.52181 13.5902 2.84311Z" fill="white" stroke="#CBAA5D" stroke-width="1.8125"/>
<line id="Line 7" x1="17.9443" y1="9.63071" x2="11.2985" y2="20.2036" stroke="#CBAA5D"/>
<circle id="Ellipse 7" cx="11.4793" cy="12.3855" r="1.61458" stroke="#CBAA5D"/>
<circle id="Ellipse 8" cx="17.5208" cy="16.6146" r="1.61458" stroke="#CBAA5D"/>
</g>
</g>
</svg>
