<svg width="57" height="53" viewBox="0 0 57 53" fill="none" xmlns="http://www.w3.org/2000/svg">
<g id="Frame">
<path id="Vector" d="M26.1667 5C36.752 5 45.3333 13.5812 45.3333 24.1667C45.3333 34.752 36.752 43.3333 26.1667 43.3333C15.5812 43.3333 7 34.752 7 24.1667C7 13.5812 15.5812 5 26.1667 5ZM29.3665 31.8331H22.9649L20.3218 35.4691L21.3834 38.7393C22.8886 39.233 24.4965 39.5 26.1667 39.5C27.8368 39.5 29.4447 39.233 30.9499 38.7393L32.0096 35.4691L29.3665 31.8331ZM13.3126 22.0045L10.8376 23.8015L10.8333 24.1667C10.8333 27.4819 11.8855 30.5515 13.674 33.0594L17.3357 33.0598L19.8695 29.5715L17.8992 23.4956L13.3126 22.0045ZM39.0189 22.0045L34.4323 23.4956L32.462 29.5715L34.9958 33.0598L38.6593 33.0594C40.4479 30.5515 41.5 27.4819 41.5 24.1667L41.4942 23.8006L39.0189 22.0045ZM30.5585 9.47156L28.0824 11.2731V16.0974L33.2459 19.8483L37.5373 18.4549L38.5995 15.1905C36.6451 12.4881 33.831 10.4482 30.5585 9.47156ZM21.7748 9.47156C18.5015 10.4484 15.687 12.4891 13.7325 15.1924L14.7942 18.4549L19.0856 19.8483L24.249 16.0974V11.2731L21.7748 9.47156Z" fill="#8F583A"/>
</g>
</svg>
