<svg width="99" height="99" viewBox="0 0 99 99" fill="none" xmlns="http://www.w3.org/2000/svg">
<g id="Frame">
<path id="Vector" d="M80.0937 27.5505C84.3433 32.0618 86.6253 37.125 86.6253 45.3325C86.6253 59.7675 76.4922 72.7085 61.749 79.1043L58.0667 73.4217C71.8248 65.9777 74.5134 56.3223 75.5884 50.2343C73.3733 51.3798 70.4734 51.7824 67.6309 51.5192C60.1877 50.8291 54.3216 44.7187 54.3216 37.125C54.3216 29.1514 60.7854 22.6875 68.7591 22.6875C73.1856 22.6875 77.4183 24.7106 80.0937 27.5505ZM38.8437 27.5505C43.0933 32.0618 45.3753 37.125 45.3753 45.3325C45.3753 59.7675 35.2422 72.7085 20.4991 79.1043L16.8167 73.4217C30.5746 65.9777 33.2635 56.3223 34.3383 50.2343C32.1232 51.3798 29.2235 51.7824 26.3808 51.5192C18.9378 50.8291 13.0718 44.7187 13.0718 37.125C13.0718 29.1514 19.5357 22.6875 27.5093 22.6875C31.9356 22.6875 36.1684 24.7106 38.8437 27.5505Z" fill="#E9E9E9"/>
</g>
</svg>
