<svg width="109" height="109" viewBox="0 0 109 109" fill="none" xmlns="http://www.w3.org/2000/svg">
<g id="Frame">
<path id="Vector" d="M20.8163 78.6666C16.1373 73.6999 13.625 68.125 13.625 59.0889C13.625 43.1954 24.7816 28.9473 41.0139 21.9055L45.0682 28.1622C29.9207 36.3581 26.9602 46.9885 25.7769 53.692C28.2157 52.4308 31.4083 51.9871 34.5381 52.2773C42.7329 53.0366 49.1917 59.7642 49.1917 68.125C49.1917 76.904 42.0747 84.0208 33.2957 84.0208C28.4222 84.0208 23.7618 81.7936 20.8163 78.6666ZM66.2329 78.6666C61.5541 73.6999 59.0417 68.125 59.0417 59.0889C59.0417 43.1954 70.1983 28.9473 86.4306 21.9055L90.485 28.1622C75.3372 36.3581 72.3769 46.9885 71.1933 53.692C73.6322 52.4308 76.825 51.9871 79.9547 52.2773C88.1497 53.0366 94.6084 59.7642 94.6084 68.125C94.6084 76.904 87.4916 84.0208 78.7125 84.0208C73.8389 84.0208 69.1787 81.7936 66.2329 78.6666Z" fill="#E9E9E9"/>
</g>
</svg>
