<svg width="54" height="54" viewBox="0 0 54 54" fill="none" xmlns="http://www.w3.org/2000/svg">
<path d="M14.2256 22.8128H18.2906C18.2906 16.2497 23.2814 12.6328 23.2814 12.6328C18.1844 13.228 14.2256 17.5548 14.2256 22.8128Z" fill="#8F583A"/>
<path d="M39.0782 39.8411L38.6241 39.5235C37.9345 39.0412 37.4824 38.2821 37.3847 37.4428L36.9522 33.7178C36.9529 33.6633 36.9542 33.6101 36.9542 33.5471C36.9536 33.3128 36.9451 33.0347 36.8801 32.7243C36.8125 32.4178 36.6911 32.0491 36.3662 31.7158C35.8788 31.2237 35.2147 30.9467 34.5224 30.9467L34.4771 30.9473L33.4879 30.9657V31.0431C33.4518 31.051 33.419 31.0549 33.3822 31.0648C33.1427 31.1304 32.8848 31.2407 32.6408 31.4074C32.396 31.574 32.1683 31.7938 31.9715 32.0583L31.9309 32.1134L30.3386 34.9973C30.0597 35.4639 29.797 35.7125 29.5673 35.8523C29.335 35.9915 29.1175 36.0453 28.8267 36.0479C28.5328 36.0492 28.1667 35.9744 27.7568 35.8365L16.7131 31.0478L16.6736 31.0348C16.4142 30.9462 16.1464 30.9036 15.8826 30.9036C15.1057 30.9036 14.3547 31.273 13.8825 31.9299L13.8793 31.9338L13.862 31.9587L13.8629 31.9593C13.5562 32.3885 13.405 32.8918 13.4053 33.3852C13.4043 34.1012 13.7228 34.815 14.32 35.2979L14.3186 35.2993L27.1626 45.8938L27.2663 45.9456L33.9931 49.2881L33.6191 49.9837L40.8825 54.0001L46.6627 43.261L39.3989 39.2452L39.0782 39.8411ZM34.9495 47.5125L28.2663 44.1909L15.5963 33.7393L15.5891 33.734C15.4775 33.6448 15.4224 33.5189 15.4211 33.3849C15.4217 33.293 15.4469 33.2077 15.5044 33.1271L15.5074 33.123L15.5198 33.1053C15.6055 32.9858 15.7416 32.9196 15.8826 32.919L16.0113 32.94L27.0468 37.7249L27.0848 37.7379C27.6311 37.9229 28.2092 38.0628 28.8266 38.0634C29.4163 38.0661 30.0474 37.9223 30.6144 37.5746C31.1839 37.2288 31.6708 36.7038 32.0749 36.0214L32.0835 36.0062L33.617 33.2294C33.6801 33.1506 33.7332 33.1021 33.7745 33.0739C33.8466 33.0267 33.9018 33.0063 34.0165 32.9878C34.1294 32.9702 34.2911 32.9702 34.5123 32.9682L34.5484 32.9676C34.6797 32.9741 34.8017 33.0254 34.9002 33.1112C34.9074 33.1369 34.9152 33.1723 34.9206 33.2188C34.933 33.3068 34.9383 33.4236 34.9383 33.5469C34.9383 33.6106 34.937 33.6762 34.935 33.7437L34.9338 33.8146L35.3819 37.6755C35.5466 39.087 36.3052 40.3619 37.4705 41.1762L37.504 41.1991L38.1162 41.6283L34.9495 47.5125ZM42.8963 44.8641C42.899 45.4671 42.4133 45.958 41.8098 45.9606C41.2074 45.9639 40.7152 45.477 40.7127 44.874C40.7101 44.2709 41.1977 43.7801 41.7999 43.7769C42.4036 43.7742 42.8938 44.2611 42.8963 44.8641Z" fill="#8F583A"/>
<path d="M27 5.26321C28.4535 5.26321 29.632 4.0847 29.632 2.63197C29.632 1.17851 28.4535 0 27 0C25.5467 0 24.3682 1.17851 24.3682 2.63187C24.3681 4.0847 25.5467 5.26321 27 5.26321Z" fill="#8F583A"/>
<path d="M47.1585 25.197H46.5252L46.5089 24.9451C45.8567 14.6877 37.2877 6.65224 27.0004 6.65161C16.7143 6.65224 8.14496 14.6877 7.49242 24.9451L7.47639 25.197H6.84284C5.32388 25.197 4.08789 26.4327 4.08789 27.9517C4.08789 29.4708 5.32388 30.7063 6.84284 30.7063H47.1586C48.6777 30.7063 49.9132 29.4707 49.9132 27.9517C49.9131 26.4327 48.6775 25.197 47.1585 25.197ZM9.63375 25.1294L9.65611 24.8395C9.976 20.7147 11.7654 16.8296 14.6949 13.8984C17.983 10.6123 22.3534 8.80191 27.0004 8.80128C31.6476 8.80191 36.018 10.6123 39.3068 13.8984C42.2359 16.8302 44.0253 20.7153 44.3448 24.8395L44.3671 25.1294H9.63375Z" fill="#8F583A"/>
</svg>
