<svg width="54" height="54" viewBox="0 0 54 54" fill="none" xmlns="http://www.w3.org/2000/svg">
<g id="Component 32">
<path id="Vector" d="M13.4998 16.1999C13.4998 15.3052 12.7745 14.5799 11.8798 14.5799C10.9851 14.5799 10.2598 15.3052 10.2598 16.1999H13.4998ZM43.7398 16.1999C43.7398 15.3052 43.0144 14.5799 42.1198 14.5799C41.2251 14.5799 40.4998 15.3052 40.4998 16.1999H43.7398ZM10.2598 16.1999C10.2598 17.0946 10.9851 17.8199 11.8798 17.8199C12.7745 17.8199 13.4998 17.0946 13.4998 16.1999H10.2598ZM40.4998 16.1999C40.4998 17.0946 41.2251 17.8199 42.1198 17.8199C43.0144 17.8199 43.7398 17.0946 43.7398 16.1999H40.4998ZM11.8798 14.5799C10.9851 14.5799 10.2598 15.3052 10.2598 16.1999C10.2598 17.0946 10.9851 17.8199 11.8798 17.8199V14.5799ZM42.1198 17.8199C43.0144 17.8199 43.7398 17.0946 43.7398 16.1999C43.7398 15.3052 43.0144 14.5799 42.1198 14.5799V17.8199ZM31.3198 10.2599C30.4251 10.2599 29.6998 10.9852 29.6998 11.8799C29.6998 12.7746 30.4251 13.4999 31.3198 13.4999V10.2599ZM37.7998 13.4999C38.6944 13.4999 39.4198 12.7746 39.4198 11.8799C39.4198 10.9852 38.6944 10.2599 37.7998 10.2599V13.4999ZM37.2598 31.3199C37.2598 30.4253 36.5344 29.6999 35.6398 29.6999C34.7451 29.6999 34.0198 30.4253 34.0198 31.3199H37.2598ZM19.9798 31.3199C19.9798 30.4253 19.2545 29.6999 18.3598 29.6999C17.4651 29.6999 16.7398 30.4253 16.7398 31.3199H19.9798ZM34.0198 31.3199C34.0198 32.2146 34.7451 32.9399 35.6398 32.9399C36.5344 32.9399 37.2598 32.2146 37.2598 31.3199H34.0198ZM16.7398 31.3199C16.7398 32.2146 17.4651 32.9399 18.3598 32.9399C19.2545 32.9399 19.9798 32.2146 19.9798 31.3199H16.7398ZM36.3636 32.7693C37.1641 32.3695 37.4887 31.3966 37.0891 30.5961C36.6893 29.7956 35.7164 29.471 34.916 29.8706L36.3636 32.7693ZM17.6359 29.8706C16.8355 30.2704 16.5107 31.2433 16.9105 32.0438C17.3102 32.8443 18.2832 33.1689 19.0836 32.7693L17.6359 29.8706ZM10.2598 16.1999V42.1199H13.4998V16.1999H10.2598ZM10.2598 42.1199C10.2598 45.4006 12.9192 48.0599 16.1998 48.0599V44.8199C14.7086 44.8199 13.4998 43.6112 13.4998 42.1199H10.2598ZM16.1998 48.0599H37.7998V44.8199H16.1998V48.0599ZM37.7998 48.0599C41.0804 48.0599 43.7398 45.4006 43.7398 42.1199H40.4998C40.4998 43.6112 39.291 44.8199 37.7998 44.8199V48.0599ZM43.7398 42.1199V16.1999H40.4998V42.1199H43.7398ZM13.4998 16.1999V11.8799H10.2598V16.1999H13.4998ZM13.4998 11.8799C13.4998 10.3888 14.7086 9.17994 16.1998 9.17994V5.93994C12.9192 5.93994 10.2598 8.59938 10.2598 11.8799H13.4998ZM16.1998 9.17994H37.7998V5.93994H16.1998V9.17994ZM37.7998 9.17994C39.291 9.17994 40.4998 10.3888 40.4998 11.8799H43.7398C43.7398 8.59938 41.0804 5.93994 37.7998 5.93994V9.17994ZM40.4998 11.8799V16.1999H43.7398V11.8799H40.4998ZM11.8798 17.8199H42.1198V14.5799H11.8798V17.8199ZM31.3198 13.4999H37.7998V10.2599H31.3198V13.4999ZM34.0198 31.3199C34.0198 35.1969 30.8768 38.3399 26.9998 38.3399V41.5799C32.6663 41.5799 37.2598 36.9865 37.2598 31.3199H34.0198ZM26.9998 38.3399C23.1228 38.3399 19.9798 35.1969 19.9798 31.3199H16.7398C16.7398 36.9865 21.3333 41.5799 26.9998 41.5799V38.3399ZM37.2598 31.3199C37.2598 25.6534 32.6663 21.0599 26.9998 21.0599V24.2999C30.8768 24.2999 34.0198 27.443 34.0198 31.3199H37.2598ZM26.9998 21.0599C21.3333 21.0599 16.7398 25.6534 16.7398 31.3199H19.9798C19.9798 27.443 23.1228 24.2999 26.9998 24.2999V21.0599ZM34.916 29.8706C34.0891 30.2836 32.6944 30.7884 31.2977 30.9324C29.867 31.08 28.7919 30.821 28.1452 30.1745L25.8543 32.4654C27.5123 34.1236 29.7972 34.3442 31.6302 34.1554C33.4973 33.9629 35.2702 33.3153 36.3636 32.7693L34.916 29.8706ZM28.1452 30.1745C26.4872 28.5163 24.2024 28.2957 22.3694 28.4845C20.5022 28.677 18.7293 29.3245 17.6359 29.8706L19.0836 32.7693C19.9105 32.3563 21.3052 31.8515 22.7018 31.7074C24.1326 31.5599 25.2076 31.8189 25.8543 32.4654L28.1452 30.1745Z" fill="#8F583A"/>
</g>
</svg>
