<svg width="53" height="52" viewBox="0 0 53 52" fill="none" xmlns="http://www.w3.org/2000/svg">
<g id="drink (1) 1">
<path id="Vector" d="M46.7807 15.9218C46.8652 15.7902 46.9096 15.6378 46.9088 15.4823C46.9079 15.3268 46.8617 15.1749 46.7758 15.0443C46.6884 14.9148 46.5656 14.8121 46.4215 14.748C46.2774 14.6839 46.1177 14.661 45.9609 14.6819L26.2913 17.485C26.2653 17.495 26.2398 17.5064 26.2151 17.5191L7.04565 14.612C6.88921 14.5899 6.72959 14.6116 6.58514 14.6745C6.4407 14.7375 6.31729 14.8392 6.22912 14.9679C6.14186 15.0974 6.09424 15.2487 6.09189 15.4039C6.08954 15.5591 6.13256 15.7118 6.21587 15.8438L14.1062 28.3189L12.2562 40.0676L8.16362 39.4453C7.94697 39.4148 7.72677 39.4688 7.55028 39.5958C7.37378 39.7228 7.25505 39.9126 7.21956 40.1245C7.18623 40.3372 7.24022 40.5541 7.3697 40.7277C7.49917 40.9014 7.69356 41.0175 7.91021 41.0508L17.7318 42.5425C17.7734 42.5488 17.8155 42.5521 17.8577 42.5523C18.0678 42.5542 18.2709 42.4776 18.4256 42.3381C18.5804 42.1985 18.6753 42.0065 18.6911 41.8009C18.7069 41.5952 18.6424 41.3914 18.5107 41.2307C18.379 41.07 18.19 40.9644 17.9819 40.9354L13.8909 40.3146L15.7426 28.5659L26.5414 19.4821L37.1364 28.5594L38.8771 40.3228L34.7796 40.9061C34.5721 40.9351 34.3835 41.0402 34.2519 41.2002C34.1203 41.3602 34.0554 41.5632 34.0704 41.7683C34.0853 41.9734 34.1789 42.1653 34.3323 42.3054C34.4857 42.4454 34.6876 42.5232 34.8972 42.523C34.9381 42.5227 34.9791 42.52 35.0197 42.5149L44.8545 41.1141C45.0719 41.0824 45.2677 40.9675 45.399 40.7945C45.5303 40.6215 45.5864 40.4046 45.5551 40.1911C45.5192 39.9799 45.4013 39.7906 45.2263 39.6628C45.0512 39.5349 44.8325 39.4785 44.616 39.5054L40.5185 40.0888L38.7761 28.327L46.7807 15.9218ZM33.1101 22.9499C33.6315 22.7453 34.105 22.4384 34.5013 22.048C35.2851 22.4782 36.1916 22.6427 37.0803 22.5161C37.969 22.3895 38.7904 21.9788 39.4171 21.3476C39.9101 21.6112 40.4529 21.7732 41.012 21.8238L37.7293 26.91L33.1101 22.9499ZM15.1646 26.9116L11.9299 21.7961C12.489 21.751 13.0328 21.5945 13.5282 21.3363C14.1491 21.9734 14.9669 22.3916 15.8548 22.5262C16.7428 22.6608 17.6511 22.5041 18.439 22.0805C18.8318 22.4746 19.3023 22.7859 19.822 22.9954L15.1646 26.9116ZM21.3689 21.6921C21.2514 21.6906 21.1341 21.6814 21.0178 21.6645C20.6683 21.611 20.3348 21.4838 20.0403 21.2916C19.7458 21.0994 19.4973 20.8469 19.3118 20.5514C19.2486 20.4535 19.1648 20.3701 19.066 20.3066C18.9672 20.2432 18.8557 20.2012 18.739 20.1835C18.6222 20.1658 18.503 20.1728 18.3893 20.204C18.2756 20.2352 18.17 20.29 18.0796 20.3645C17.8118 20.5914 17.497 20.7585 17.1569 20.8542C16.8168 20.95 16.4596 20.9722 16.1099 20.9192C15.7603 20.8661 15.4265 20.7393 15.1317 20.5473C14.837 20.3553 14.5882 20.1027 14.4027 19.8071C14.3393 19.709 14.2553 19.6253 14.1562 19.5617C14.0571 19.498 13.9453 19.4559 13.8282 19.4382C13.7112 19.4205 13.5916 19.4276 13.4776 19.459C13.3636 19.4904 13.2577 19.5454 13.1672 19.6203C12.8972 19.8445 12.5817 20.0099 12.2416 20.1054C11.9015 20.2009 11.5446 20.2244 11.1946 20.1744C11.0751 20.1509 10.9577 20.1183 10.8434 20.0769L8.57271 16.4873L24.6549 18.9264L21.3689 21.6921ZM44.4173 16.5458L42.1018 20.1338C41.9895 20.1663 41.8749 20.1908 41.759 20.2069C41.4082 20.2578 41.0504 20.2329 40.7105 20.1338C40.3706 20.0347 40.0569 19.8639 39.7914 19.6333C39.7007 19.5595 39.5955 19.5048 39.4824 19.4727C39.3693 19.4405 39.2506 19.4316 39.1338 19.4464C39.0171 19.4632 38.9053 19.5042 38.8059 19.5667C38.7065 19.6291 38.6218 19.7117 38.5575 19.8088C38.368 20.1016 38.1166 20.3511 37.8202 20.5404C37.5239 20.7296 37.1896 20.8542 36.8399 20.9056C36.4899 20.9561 36.133 20.9312 35.7938 20.8327C35.4546 20.7342 35.1413 20.5645 34.8756 20.3353C34.7852 20.2605 34.6799 20.2051 34.5663 20.1726C34.4528 20.1402 34.3336 20.1313 34.2164 20.1468C34.0998 20.164 33.9882 20.2053 33.8892 20.2681C33.7901 20.3308 33.7057 20.4136 33.6417 20.5108C33.4318 20.8661 33.1257 21.1576 32.7574 21.3529C32.3891 21.5482 31.9729 21.6398 31.5548 21.6174L28.3119 18.8386L44.4173 16.5458ZM26.4072 12.6978C26.516 12.6978 26.6237 12.6767 26.7241 12.6359C26.8246 12.5951 26.9159 12.5352 26.9928 12.4598C27.0697 12.3843 27.1307 12.2948 27.1723 12.1962C27.2139 12.0976 27.2353 11.992 27.2353 11.8853V10.2603C27.2353 10.0448 27.1481 9.8381 26.9928 9.68573C26.8375 9.53336 26.6268 9.44775 26.4072 9.44775C26.1876 9.44775 25.9769 9.53336 25.8216 9.68573C25.6663 9.8381 25.5791 10.0448 25.5791 10.2603V11.8853C25.5791 12.1007 25.6663 12.3074 25.8216 12.4598C25.9769 12.6122 26.1876 12.6978 26.4072 12.6978ZM30.5346 14.3228C30.6432 14.3229 30.7507 14.302 30.851 14.2613C30.9514 14.2206 31.0425 14.1609 31.1192 14.0855L32.2902 12.9366C32.4411 12.7834 32.5245 12.5782 32.5226 12.3651C32.5208 12.1521 32.4337 11.9483 32.2801 11.7977C32.1266 11.647 31.9189 11.5616 31.7018 11.5597C31.4846 11.5579 31.2754 11.6398 31.1192 11.7878L29.9483 12.9366C29.8327 13.0503 29.7541 13.1951 29.7224 13.3526C29.6906 13.5102 29.7072 13.6734 29.7699 13.8217C29.8326 13.97 29.9387 14.0967 30.0748 14.1859C30.2109 14.2751 30.3709 14.3227 30.5346 14.3228ZM21.1834 14.0855C21.3407 14.2274 21.5479 14.3041 21.7615 14.2996C21.9752 14.2951 22.1788 14.2098 22.3298 14.0614C22.4808 13.913 22.5675 13.7132 22.5718 13.5035C22.576 13.2939 22.4975 13.0908 22.3527 12.9366L21.1817 11.7878C21.0256 11.6398 20.8164 11.5579 20.5992 11.5597C20.3821 11.5616 20.1744 11.647 20.0209 11.7977C19.8673 11.9483 19.7802 12.1521 19.7783 12.3651C19.7765 12.5782 19.8599 12.7834 20.0108 12.9366L21.1834 14.0855Z" fill="#8F583A"/>
</g>
</svg>
